<?xml version="1.0" encoding="utf-8"?>
<!-- Generator: Adobe Illustrator 17.0.0, SVG Export Plug-In . SVG Version: 6.00 Build 0)  -->
<!DOCTYPE svg PUBLIC "-//W3C//DTD SVG 1.1//EN" "http://www.w3.org/Graphics/SVG/1.1/DTD/svg11.dtd">
<svg version="1.1" id="Layer_1" xmlns="http://www.w3.org/2000/svg" xmlns:xlink="http://www.w3.org/1999/xlink" x="0px" y="0px"
	 width="54px" height="56px" viewBox="5 4 54 56" enable-background="new 5 4 54 56" xml:space="preserve">
<g>
	<rect x="5" y="4" fill="none" width="54" height="56"/>
	<g>
		<g>
			<path d="M50.482,15.109L43.786,4.873C43.633,4.64,43.374,4.5,43.096,4.5H21.434c-0.035,0-0.07,0.002-0.106,0.006
				c-0.006,0.001-0.012,0.002-0.018,0.002c-0.026,0.004-0.051,0.008-0.077,0.015c-0.008,0.002-0.015,0.004-0.022,0.005
				c-0.024,0.006-0.048,0.014-0.072,0.023c-0.007,0.002-0.013,0.005-0.02,0.007c-0.029,0.011-0.057,0.024-0.086,0.04
				c0,0,0,0-0.001,0c0,0.002-0.002,0.003-0.004,0.004c-0.026,0.014-0.051,0.03-0.074,0.046c-0.007,0.005-0.014,0.01-0.021,0.016
				c-0.019,0.014-0.037,0.029-0.054,0.044c-0.007,0.006-0.014,0.012-0.02,0.019c-0.018,0.017-0.034,0.034-0.05,0.052
				c-0.005,0.006-0.01,0.011-0.015,0.017c-0.021,0.025-0.041,0.051-0.058,0.078l-2.512,3.839c-0.249,0.381-0.142,0.892,0.238,1.141
				c0.381,0.249,0.892,0.142,1.141-0.238l1.754-2.681l4.2,7.801h-9.304l1.669-2.551c0.249-0.381,0.142-0.892-0.238-1.141
				c-0.381-0.249-0.892-0.143-1.141,0.238l-2.504,3.827c-0.21,0.322-0.171,0.746,0.096,1.023l17.329,18.017
				c0.098,0.201,0.276,0.362,0.507,0.43c0.078,0.023,0.156,0.034,0.234,0.034c0.008,0,0.015-0.002,0.023-0.002
				c0.011,0,0.022,0.002,0.033,0.002s0.022-0.001,0.033-0.002c0.008,0,0.015,0.002,0.023,0.002c0.077,0,0.156-0.011,0.234-0.034
				c0.231-0.068,0.409-0.229,0.507-0.43l17.329-18.017C50.653,15.854,50.692,15.43,50.482,15.109z M41.709,6.148l-4.124,7.671
				l-4.124-7.671C33.461,6.148,41.709,6.148,41.709,6.148z M36.206,14.736h-7.891l3.945-7.339L36.206,14.736z M22.805,6.148h8.255
				l-4.124,7.672L22.805,6.148z M16.665,16.384h9.655l4.276,14.484L16.665,16.384z M32.261,30.685l-4.222-14.301h8.443
				L32.261,30.685z M33.925,30.868l4.276-14.484h9.655L33.925,30.868z M38.964,14.736l4.197-7.807l5.108,7.807H38.964z"/>
		</g>
	</g>
	<g>
		<g>
			<path d="M30.624,39.279c-0.128-0.778-0.55-1.458-1.187-1.916c-1.317-0.944-3.155-0.645-4.104,0.667l-3.077,4.053H21.04v-6.046
				c0-1.429-1.163-2.593-2.592-2.593c-0.333,0-0.651,0.064-0.944,0.179v-0.212c0-1.429-1.163-2.593-2.592-2.593
				c-1.417,0-2.571,1.142-2.591,2.554c-0.293-0.115-0.612-0.179-0.945-0.179c-1.234,0-2.27,0.868-2.529,2.025
				c-0.31-0.131-0.65-0.204-1.007-0.204c-1.429,0-2.592,1.163-2.592,2.592v6.87c0,0.034,0.001,0.068,0.002,0.102
				c-0.001,0.032-0.002,0.064-0.002,0.096c0,1.408,1.352,2.557,3.03,2.592l5.504,0.976c0.541,0.295,3.155,1.89,3.155,5.119v0.673
				c0,0.455,0.369,0.824,0.824,0.824s0.824-0.369,0.824-0.824v-0.673c0-4.673-4.211-6.668-4.253-6.683
				c-0.045-0.016-0.091-0.029-0.138-0.037l-5.695-1.01C8.449,45.624,8.4,45.62,8.352,45.62c-0.859,0-1.458-0.497-1.458-0.944
				c0-0.013,0.001-0.025,0.001-0.038c0.002-0.035,0.002-0.07,0-0.105c-0.001-0.018-0.002-0.037-0.002-0.055v-6.87
				c0-0.521,0.424-0.944,0.944-0.944s0.943,0.423,0.944,0.943v5.299v0.001v0.001c0,0.455,0.369,0.824,0.824,0.824h7.073h3.536h3.864
				c0.455,0,0.824-0.369,0.824-0.824c0-0.378-0.255-0.696-0.602-0.793l2.35-3.096c0.005-0.006,0.009-0.012,0.013-0.018
				c0.417-0.581,1.229-0.715,1.811-0.298c0.28,0.201,0.465,0.5,0.522,0.844s-0.023,0.687-0.225,0.969L27.41,42.43
				c-0.001,0.002-0.002,0.004-0.003,0.005c-0.01,0.014-0.018,0.028-0.027,0.043c-0.006,0.01-0.013,0.02-0.018,0.03
				c-0.006,0.011-0.011,0.022-0.017,0.033c-0.007,0.015-0.015,0.029-0.021,0.044c-0.001,0.002-0.002,0.004-0.003,0.006l-1.228,2.953
				c-0.003,0.008-0.007,0.016-0.01,0.024l-0.324,0.856c-0.035,0.093-0.053,0.192-0.053,0.292V57.85h-7.123v-1.21
				c0-0.455-0.369-0.824-0.824-0.824s-0.824,0.369-0.824,0.824v2.035c0,0.455,0.369,0.824,0.824,0.824h8.771
				c0.455,0,0.824-0.369,0.824-0.824V46.868l0.266-0.703l1.188-2.855l1.305-1.835C30.571,40.837,30.752,40.057,30.624,39.279z
				 M12.318,42.082H10.43v-4.474c0-0.001,0-0.001,0-0.002v-1.819c0-0.521,0.423-0.944,0.944-0.944s0.944,0.424,0.944,0.944
				L12.318,42.082L12.318,42.082z M15.855,36.038v6.044h-1.888v-6.295v-2.375c0-0.521,0.424-0.944,0.944-0.944
				s0.944,0.424,0.944,0.944V36.038L15.855,36.038z M19.391,42.084h-1.888v-6.046c0-0.521,0.424-0.944,0.944-0.944
				c0.521,0,0.944,0.424,0.944,0.944V42.084L19.391,42.084z"/>
		</g>
	</g>
	<g>
		<g>
			<path d="M58.755,37.608L58.755,37.608c0-1.429-1.163-2.592-2.592-2.592c-0.357,0-0.697,0.073-1.007,0.204
				c-0.26-1.157-1.295-2.025-2.529-2.025c-0.333,0-0.652,0.064-0.945,0.179c-0.021-1.412-1.175-2.554-2.591-2.554
				c-1.429,0-2.592,1.163-2.592,2.593v0.212c-0.293-0.115-0.611-0.179-0.944-0.179c-1.429,0-2.592,1.163-2.592,2.593v6.046h-1.216
				l-3.077-4.053c-0.949-1.312-2.787-1.611-4.104-0.667c-0.638,0.457-1.059,1.138-1.187,1.916s0.053,1.558,0.509,2.192l1.307,1.838
				l1.188,2.855l0.266,0.703v4.666c0,0.455,0.369,0.824,0.824,0.824s0.824-0.369,0.824-0.824v-4.817c0-0.1-0.018-0.199-0.053-0.292
				L37.92,45.57c-0.003-0.008-0.006-0.016-0.01-0.024l-1.228-2.953c-0.001-0.002-0.002-0.004-0.003-0.006
				c-0.006-0.015-0.014-0.029-0.021-0.044c-0.005-0.011-0.011-0.023-0.017-0.033c-0.005-0.01-0.012-0.019-0.018-0.029
				c-0.009-0.015-0.018-0.03-0.028-0.044c-0.001-0.002-0.002-0.003-0.003-0.005l-1.363-1.917c-0.201-0.28-0.28-0.623-0.223-0.967
				c0.057-0.344,0.242-0.643,0.522-0.844c0.582-0.417,1.394-0.283,1.811,0.298c0.004,0.006,0.009,0.012,0.013,0.018l2.35,3.096
				c-0.347,0.097-0.602,0.415-0.602,0.793c0,0.455,0.369,0.824,0.824,0.824h3.864h3.536h7.073c0.455,0,0.824-0.369,0.824-0.824
				v-0.001v-0.001v-5.299c0.001-0.52,0.424-0.943,0.944-0.943c0.521,0,0.944,0.424,0.944,0.944v6.87
				c0,0.019-0.001,0.037-0.002,0.055c-0.002,0.035-0.002,0.07,0,0.105c0.001,0.012,0.001,0.025,0.001,0.038
				c0,0.446-0.599,0.944-1.458,0.944c-0.048,0-0.096,0.004-0.144,0.013l-5.695,1.01c-0.047,0.008-0.093,0.021-0.138,0.037
				c-0.043,0.015-4.253,2.011-4.253,6.683v4.488h-7.123v-3.314c0-0.455-0.369-0.824-0.824-0.824s-0.824,0.369-0.824,0.824v4.138
				c0,0.455,0.369,0.824,0.824,0.824h8.771c0.455,0,0.824-0.369,0.824-0.824v-5.312c0-3.23,2.614-4.824,3.155-5.119l5.504-0.976
				c1.678-0.034,3.03-1.184,3.03-2.592c0-0.032-0.001-0.064-0.002-0.096c0.001-0.034,0.002-0.068,0.002-0.102L58.755,37.608
				L58.755,37.608z M46.497,42.084h-1.888v-6.046l0,0c0-0.521,0.424-0.944,0.944-0.944s0.944,0.424,0.944,0.944V42.084
				L46.497,42.084z M50.033,35.787v6.295h-1.888v-6.044v-2.626l0,0c0-0.521,0.424-0.944,0.944-0.944s0.944,0.424,0.944,0.944V35.787
				L50.033,35.787z M53.57,37.606c0,0.001,0,0.001,0,0.002v4.474h-1.888v-6.295c0-0.521,0.423-0.944,0.944-0.944
				s0.944,0.424,0.944,0.944V37.606L53.57,37.606z"/>
		</g>
	</g>
</g>
</svg>
