<?xml version="1.0" encoding="utf-8"?>
<!-- Generator: Adobe Illustrator 17.0.0, SVG Export Plug-In . SVG Version: 6.00 Build 0)  -->
<!DOCTYPE svg PUBLIC "-//W3C//DTD SVG 1.1//EN" "http://www.w3.org/Graphics/SVG/1.1/DTD/svg11.dtd">
<svg version="1.1" id="Layer_1" xmlns="http://www.w3.org/2000/svg" xmlns:xlink="http://www.w3.org/1999/xlink" x="0px" y="0px"
	 width="44px" height="56px" viewBox="10 4 44 56" enable-background="new 10 4 44 56" xml:space="preserve">
<g>
	<rect x="10" y="4" fill="none" width="44" height="56"/>
	<g>
		<path d="M28.398,33.311V20.308c0.767-0.297,1.312-1.041,1.312-1.911c0-1.131-0.92-2.051-2.051-2.051h-7.892
			c-1.131,0-2.051,0.92-2.051,2.051c0,0.87,0.546,1.614,1.312,1.911v13.004C13.724,35.267,10.2,40.29,10.2,45.988
			c0,7.451,6.062,13.513,13.513,13.513s13.513-6.062,13.513-13.513C37.226,40.289,33.702,35.266,28.398,33.311z M19.767,17.917
			h7.892c0.264,0,0.479,0.215,0.479,0.48c0,0.264-0.215,0.479-0.479,0.479h-7.892c-0.264,0-0.48-0.215-0.48-0.479
			C19.287,18.132,19.502,17.917,19.767,17.917z M20.054,34.619c0.325-0.104,0.545-0.407,0.545-0.748V20.447h6.227v13.424
			c0,0.341,0.22,0.643,0.545,0.748c3.625,1.166,6.377,3.925,7.595,7.361c-0.615-0.177-1.383-0.332-2.322-0.473
			c-2.392-0.36-5.564-0.558-8.931-0.558s-6.539,0.198-8.931,0.558c-0.939,0.141-1.707,0.297-2.322,0.474
			C13.677,38.544,16.43,35.785,20.054,34.619z M34.93,43.609c-1.382,0.48-5.135,1.09-11.218,1.09c-6.082,0-9.835-0.61-11.217-1.09
			c1.382-0.48,5.134-1.09,11.217-1.09C29.796,42.52,33.548,43.129,34.93,43.609z M23.713,57.929
			c-6.584,0-11.941-5.357-11.941-11.941c0-0.325,0.013-0.647,0.039-0.966c0.691,0.271,1.667,0.494,2.972,0.691
			c2.392,0.36,5.564,0.558,8.931,0.558s6.539-0.198,8.931-0.558c1.305-0.197,2.281-0.42,2.972-0.691
			c0.026,0.319,0.038,0.641,0.038,0.966C35.654,52.572,30.297,57.929,23.713,57.929z"/>
		<path d="M15.555,40.212c0.15,0.135,0.338,0.202,0.525,0.202c0.215,0,0.429-0.088,0.584-0.26c0.753-0.837,1.619-1.563,2.574-2.159
			c0.368-0.23,0.481-0.714,0.251-1.082c-0.23-0.368-0.714-0.481-1.083-0.251c-1.08,0.673-2.06,1.495-2.911,2.441
			C15.206,39.424,15.233,39.921,15.555,40.212z"/>
		<path d="M32.462,49.933c-0.368-0.23-0.853-0.118-1.083,0.25c-0.286,0.458-0.614,0.9-0.974,1.312
			c-0.285,0.327-0.252,0.823,0.075,1.109c0.149,0.13,0.333,0.194,0.516,0.194c0.219,0,0.437-0.091,0.592-0.269
			c0.415-0.475,0.793-0.984,1.123-1.513C32.942,50.648,32.83,50.163,32.462,49.933z"/>
		<path d="M29.004,52.823c-1.521,1.192-3.339,1.925-5.256,2.12c-0.432,0.044-0.746,0.429-0.702,0.861
			c0.041,0.405,0.383,0.706,0.781,0.706c0.026,0,0.054-0.001,0.08-0.004c2.214-0.225,4.311-1.071,6.067-2.446
			c0.342-0.268,0.402-0.761,0.134-1.103C29.839,52.616,29.345,52.555,29.004,52.823z"/>
		<path d="M53.173,20.368c0-1.21-0.984-2.194-2.194-2.194h-8.785c-1.21,0-2.194,0.984-2.194,2.194c0,0.949,0.607,1.757,1.452,2.062
			v31.936c0,2.831,2.303,5.134,5.134,5.134s5.134-2.303,5.134-5.134V22.43C52.566,22.125,53.173,21.317,53.173,20.368z
			 M42.194,19.746h8.785c0.343,0,0.622,0.279,0.622,0.623c0,0.343-0.279,0.622-0.622,0.622h-8.785c-0.343,0-0.622-0.279-0.622-0.622
			C41.572,20.025,41.851,19.746,42.194,19.746z M46.586,28.568c-0.702,0-2.327,0.048-3.563,0.439v-6.445h7.125v6.445
			C48.913,28.615,47.288,28.568,46.586,28.568z M49.624,30.488c-0.615,0.178-1.65,0.349-3.037,0.349s-2.423-0.171-3.037-0.349
			c0.615-0.178,1.65-0.349,3.037-0.349S49.009,30.309,49.624,30.488z M46.586,57.929c-1.964,0-3.563-1.598-3.563-3.563V31.969
			c1.236,0.391,2.861,0.439,3.563,0.439s2.327-0.048,3.562-0.439v3.735h-3.339c-0.434,0-0.786,0.352-0.786,0.786
			s0.352,0.786,0.786,0.786h3.339v0.773h-1.125c-0.434,0-0.786,0.352-0.786,0.786s0.352,0.786,0.786,0.786h1.125v0.773h-3.339
			c-0.434,0-0.786,0.352-0.786,0.786s0.352,0.786,0.786,0.786h3.339v0.773h-1.125c-0.434,0-0.786,0.352-0.786,0.786
			s0.352,0.786,0.786,0.786h1.125v0.773h-3.339c-0.434,0-0.786,0.352-0.786,0.786s0.352,0.786,0.786,0.786h3.339v0.773h-1.125
			c-0.434,0-0.786,0.352-0.786,0.786s0.352,0.786,0.786,0.786h1.125v0.773h-3.339c-0.434,0-0.786,0.352-0.786,0.786
			s0.352,0.786,0.786,0.786h3.339v3.024C50.149,56.33,48.551,57.929,46.586,57.929z"/>
		<g>
			<g>
				<path d="M21.004,9.31c1.326,0,2.405-1.079,2.405-2.405S22.33,4.5,21.004,4.5s-2.405,1.079-2.405,2.405
					C18.6,8.231,19.678,9.31,21.004,9.31z M21.004,6.071c0.459,0,0.833,0.374,0.833,0.833c0,0.46-0.374,0.834-0.833,0.834
					s-0.833-0.374-0.833-0.834C20.171,6.445,20.545,6.071,21.004,6.071z"/>
				<path d="M21.004,15.276c1.326,0,2.405-1.079,2.405-2.405s-1.079-2.405-2.405-2.405s-2.405,1.079-2.405,2.405
					C18.6,14.197,19.678,15.276,21.004,15.276z M21.004,12.037c0.459,0,0.833,0.374,0.833,0.833c0,0.46-0.374,0.834-0.833,0.834
					s-0.833-0.374-0.833-0.834C20.171,12.411,20.545,12.037,21.004,12.037z"/>
			</g>
			<path d="M26.422,12.293c1.326,0,2.405-1.079,2.405-2.405s-1.079-2.405-2.405-2.405s-2.405,1.079-2.405,2.405
				S25.096,12.293,26.422,12.293z M26.422,9.054c0.459,0,0.833,0.374,0.833,0.833c0,0.46-0.374,0.834-0.833,0.834
				s-0.833-0.374-0.833-0.834C25.589,9.428,25.962,9.054,26.422,9.054z"/>
		</g>
		<path d="M24.943,28.188c0.434,0,0.786-0.352,0.786-0.786v-4.641c0-0.434-0.352-0.786-0.786-0.786s-0.786,0.352-0.786,0.786v4.641
			C24.157,27.836,24.509,28.188,24.943,28.188z"/>
		<path d="M24.943,32.897c0.434,0,0.786-0.352,0.786-0.786v-2.009c0-0.434-0.352-0.786-0.786-0.786s-0.786,0.352-0.786,0.786v2.009
			C24.157,32.545,24.509,32.897,24.943,32.897z"/>
	</g>
</g>
</svg>
