<?xml version="1.0" encoding="utf-8"?>
<!-- Generator: Adobe Illustrator 17.0.0, SVG Export Plug-In . SVG Version: 6.00 Build 0)  -->
<!DOCTYPE svg PUBLIC "-//W3C//DTD SVG 1.1//EN" "http://www.w3.org/Graphics/SVG/1.1/DTD/svg11.dtd">
<svg version="1.1" id="Layer_1" xmlns="http://www.w3.org/2000/svg" xmlns:xlink="http://www.w3.org/1999/xlink" x="0px" y="0px"
	 width="64px" height="64px" viewBox="28 28 64 64" enable-background="new 28 28 64 64" xml:space="preserve">
<g>
	<g>
		<g>
			<path d="M83.75,40.625c-3.901,0-6.862-2.283-9.998-4.7C70.151,33.147,66.068,30,60,30s-10.151,3.148-13.753,5.925
				c-3.135,2.417-6.096,4.7-9.997,4.7c-0.69,0-1.25,0.56-1.25,1.25c0,14.595,1.818,24.314,5.894,31.511
				c4.047,7.147,10.072,11.592,18.481,16.447C59.568,89.944,59.784,90,60,90s0.432-0.056,0.625-0.167
				c8.409-4.855,14.434-9.3,18.481-16.447C83.182,66.188,85,56.47,85,41.875C85,41.184,84.44,40.625,83.75,40.625z M60,87.305
				c-15.078-8.792-22.299-16.367-22.496-44.243c4.118-0.415,7.241-2.823,10.27-5.158C51.22,35.247,54.783,32.5,60,32.5
				c5.216,0,8.78,2.747,12.226,5.404c3.029,2.335,6.151,4.743,10.27,5.158C82.298,70.938,75.078,78.512,60,87.305z"/>
			<path d="M45.231,44.276c-0.322-0.611-1.078-0.845-1.689-0.524c-0.155,0.082-0.313,0.162-0.471,0.24
				c-0.619,0.305-0.874,1.054-0.569,1.674c0.217,0.442,0.661,0.698,1.122,0.698c0.185,0,0.374-0.041,0.551-0.129
				c0.178-0.088,0.356-0.178,0.531-0.271C45.318,45.643,45.552,44.887,45.231,44.276z"/>
			<path d="M78.232,54.078c0.038,0.003,0.077,0.005,0.114,0.005c0.639,0,1.185-0.488,1.243-1.137c0.015-0.16,0.028-0.32,0.042-0.48
				c0.058-0.688-0.452-1.293-1.14-1.351c-0.687-0.059-1.293,0.452-1.351,1.14c-0.013,0.154-0.027,0.309-0.041,0.464
				C77.038,53.407,77.545,54.016,78.232,54.078z"/>
			<path d="M47.701,43.843c0.253,0,0.509-0.077,0.731-0.237c0.724-0.523,1.429-1.06,2.111-1.579C53.734,39.598,56.489,37.5,60,37.5
				c0.69,0,1.25-0.56,1.25-1.25c0-0.69-0.56-1.25-1.25-1.25c-4.354,0-7.568,2.447-10.971,5.038c-0.67,0.51-1.362,1.037-2.06,1.541
				c-0.56,0.404-0.686,1.185-0.282,1.745C46.931,43.663,47.313,43.843,47.701,43.843z"/>
			<path d="M60,81.479c-3.199-1.972-7.063-4.621-9.96-8.036c-0.446-0.527-1.235-0.591-1.762-0.145
				c-0.527,0.446-0.591,1.235-0.145,1.762c3.328,3.924,7.744,6.846,11.218,8.954c0.006,0.004,0.013,0.006,0.019,0.01
				c0.03,0.017,0.061,0.032,0.092,0.047c0.02,0.009,0.04,0.02,0.06,0.028c0.028,0.011,0.057,0.021,0.086,0.03
				c0.024,0.008,0.048,0.017,0.072,0.024c0.026,0.007,0.053,0.011,0.079,0.016c0.027,0.005,0.053,0.012,0.08,0.015
				c0.038,0.005,0.076,0.006,0.114,0.008c0.015,0,0.029,0.003,0.044,0.003c0,0,0.001,0,0.001,0c0,0,0.001,0,0.001,0
				c0.015,0,0.029-0.002,0.044-0.003c0.038-0.002,0.077-0.003,0.114-0.008c0.027-0.003,0.053-0.01,0.079-0.015
				c0.027-0.005,0.054-0.009,0.08-0.016c0.024-0.006,0.048-0.015,0.072-0.023c0.029-0.009,0.058-0.019,0.086-0.03
				c0.02-0.008,0.04-0.019,0.06-0.028c0.031-0.015,0.062-0.03,0.092-0.047c0.007-0.004,0.013-0.006,0.019-0.01
				c3.475-2.107,7.89-5.029,11.218-8.954c3.795-4.477,6.188-10.535,7.314-18.52c0.096-0.684-0.38-1.316-1.063-1.412
				c-0.684-0.096-1.316,0.38-1.412,1.063c-1.058,7.504-3.264,13.147-6.745,17.253C67.063,76.858,63.199,79.507,60,81.479z"/>
			<path d="M68.067,45.638l-13.04,13.04l-3.094-3.095c-0.765-0.765-1.786-1.187-2.873-1.187c-1.088,0-2.108,0.421-2.874,1.187
				c-1.584,1.584-1.584,4.162,0,5.746l5.976,5.975l0.052,0.051c0.008,0.007,0.015,0.015,0.023,0.022l0.052,0.049
				c0.009,0.009,0.019,0.017,0.028,0.025l0.054,0.047c0.008,0.007,0.017,0.014,0.025,0.021l0.054,0.045
				c0.006,0.005,0.013,0.01,0.019,0.015l0.055,0.044c0.01,0.008,0.021,0.016,0.031,0.024l0.057,0.043
				c0.008,0.006,0.016,0.012,0.024,0.017l0.057,0.041c0.009,0.006,0.017,0.012,0.026,0.018l0.058,0.039
				c0.009,0.006,0.019,0.012,0.028,0.018l0.059,0.038c0.008,0.005,0.016,0.01,0.024,0.015l0.06,0.036
				c0.008,0.005,0.016,0.01,0.024,0.014l0.06,0.034c0.012,0.007,0.024,0.013,0.035,0.02l0.061,0.032
				c0.006,0.003,0.013,0.007,0.019,0.01l0.062,0.032c0.011,0.006,0.022,0.011,0.033,0.016l0.062,0.03
				c0.009,0.004,0.018,0.008,0.026,0.012l0.032,0.014c0.022,0.011,0.045,0.021,0.068,0.03l0.064,0.026
				c0.006,0.002,0.011,0.005,0.017,0.007l0.064,0.025c0.009,0.004,0.019,0.008,0.029,0.011l0.065,0.024
				c0.01,0.004,0.021,0.007,0.031,0.011l0.031,0.011c0.021,0.008,0.043,0.015,0.065,0.021l0.065,0.02
				c0.009,0.003,0.019,0.006,0.028,0.008l0.066,0.018c0.009,0.002,0.018,0.005,0.027,0.007l0.066,0.017
				c0.009,0.002,0.018,0.004,0.027,0.007l0.066,0.015c0.009,0.002,0.019,0.004,0.028,0.006l0.066,0.014
				c0.013,0.003,0.025,0.005,0.038,0.007l0.033,0.006c0.019,0.004,0.039,0.008,0.059,0.011l0.067,0.01
				c0.01,0.002,0.02,0.003,0.03,0.004l0.067,0.009c0.009,0.001,0.019,0.002,0.029,0.003l0.032,0.003
				c0.021,0.003,0.042,0.005,0.063,0.007l0.068,0.006c0.013,0.001,0.025,0.002,0.038,0.002l0.032,0.002
				c0.021,0.002,0.042,0.003,0.063,0.003l0.068,0.002c0.007,0,0.013,0,0.02,0l0.067,0.001c0.006,0,0.012,0,0.018,0
				c0.006,0,0.012,0,0.018,0l0.068-0.001c0.007,0,0.013,0,0.02,0l0.068-0.002c0.021,0,0.042-0.002,0.063-0.003l0.032-0.002
				c0.013-0.001,0.026-0.002,0.039-0.003l0.067-0.006c0.021-0.002,0.042-0.004,0.062-0.007l0.032-0.003
				c0.009-0.001,0.019-0.002,0.028-0.003l0.068-0.009c0.011-0.001,0.021-0.003,0.031-0.004l0.067-0.01
				c0.021-0.003,0.041-0.007,0.061-0.011l0.032-0.006c0.013-0.002,0.025-0.004,0.037-0.007l0.066-0.014
				c0.009-0.002,0.017-0.003,0.026-0.005l0.067-0.015c0.011-0.002,0.021-0.005,0.032-0.008l0.066-0.017
				c0.009-0.002,0.017-0.005,0.026-0.007l0.065-0.018c0.009-0.002,0.018-0.005,0.027-0.008l0.065-0.02
				c0.021-0.006,0.041-0.013,0.061-0.02l0.032-0.011c0.011-0.004,0.023-0.008,0.034-0.012l0.065-0.024
				c0.01-0.004,0.019-0.007,0.029-0.011l0.064-0.025c0.007-0.003,0.014-0.006,0.021-0.009l0.063-0.026
				c0.02-0.008,0.04-0.017,0.06-0.027l0.032-0.014c0.011-0.005,0.021-0.009,0.032-0.014l0.062-0.03
				c0.008-0.004,0.017-0.008,0.025-0.012L56.9,68.03c0.02-0.01,0.039-0.021,0.059-0.032l0.032-0.017
				c0.009-0.005,0.018-0.01,0.027-0.015l0.06-0.034c0.01-0.006,0.019-0.011,0.029-0.017l0.06-0.036
				c0.009-0.006,0.019-0.011,0.028-0.017l0.059-0.038c0.007-0.004,0.013-0.009,0.019-0.013l0.059-0.039
				c0.01-0.007,0.02-0.014,0.03-0.021l0.057-0.041c0.01-0.007,0.019-0.014,0.029-0.021l0.056-0.043
				c0.007-0.005,0.014-0.011,0.021-0.016l0.055-0.044c0.015-0.011,0.029-0.024,0.043-0.036l0.032-0.026
				c0.011-0.009,0.022-0.018,0.032-0.028l0.054-0.047c0.007-0.006,0.014-0.012,0.021-0.019l0.053-0.049
				c0.008-0.007,0.015-0.014,0.023-0.022l0.052-0.05c0.011-0.011,0.022-0.022,0.033-0.034l15.893-15.893
				c1.584-1.584,1.583-4.162-0.001-5.746c-0.765-0.765-1.785-1.187-2.873-1.187C69.853,44.451,68.833,44.873,68.067,45.638z
				 M72.046,49.616L56.132,65.529c-0.003,0.003-0.006,0.006-0.008,0.008l-0.116,0.103c-0.001,0.001-0.003,0.002-0.004,0.003
				l-0.149,0.105l-0.211,0.11c0,0-0.001,0-0.002,0.001l-0.14,0.051c-0.002,0-0.003,0.001-0.004,0.002l-0.216,0.051
				c-0.002,0-0.005,0.001-0.008,0.002l-0.108,0.013c-0.003,0-0.005,0.001-0.008,0.001l-0.061,0.004c-0.003,0-0.005,0-0.008,0
				l-0.062,0.001l-0.039-0.001l-0.022,0c-0.003,0-0.005,0-0.008,0l-0.062-0.004c-0.002,0-0.005,0-0.007-0.001l-0.108-0.013
				c-0.003,0-0.006-0.001-0.009-0.002l-0.215-0.05c0,0-0.001,0-0.001,0l-0.123-0.044l-0.235-0.12l-0.216-0.163l-6.027-6.024
				c-0.609-0.609-0.609-1.601,0-2.211c0.293-0.293,0.686-0.454,1.106-0.454c0.42,0,0.812,0.161,1.105,0.454l3.978,3.979
				c0.234,0.235,0.552,0.366,0.884,0.366c0.331,0,0.649-0.132,0.884-0.366l13.924-13.924c0.293-0.293,0.686-0.454,1.105-0.454
				c0.42,0,0.812,0.161,1.105,0.455C72.655,48.015,72.655,49.007,72.046,49.616z"/>
		</g>
	</g>
</g>
</svg>
