<?xml version="1.0" encoding="utf-8"?>
<!-- Generator: Adobe Illustrator 17.0.0, SVG Export Plug-In . SVG Version: 6.00 Build 0)  -->
<!DOCTYPE svg PUBLIC "-//W3C//DTD SVG 1.1//EN" "http://www.w3.org/Graphics/SVG/1.1/DTD/svg11.dtd">
<svg version="1.1" id="Layer_1" xmlns="http://www.w3.org/2000/svg" xmlns:xlink="http://www.w3.org/1999/xlink" x="0px" y="0px"
	 width="64px" height="64px" viewBox="28 28 64 64" enable-background="new 28 28 64 64" xml:space="preserve">
<g>
	<g>
		<g>
			<path d="M83.751,55.106V53.75c0-2.068-1.682-3.75-3.75-3.75H67.5v-6.25c0-0.69-0.56-1.25-1.25-1.25H62.5V38.75
				c0-0.69-0.56-1.25-1.25-1.25H44.269l-2.134-2.134c-0.488-0.488-1.279-0.488-1.768,0L33.232,42.5H31.25
				c-0.69,0-1.25,0.56-1.25,1.25v35c0,0.69,0.56,1.25,1.25,1.25h5.126c0.188,0.923,0.581,1.773,1.128,2.5H35
				c-0.69,0-1.25,0.56-1.25,1.25c0,0.69,0.56,1.25,1.25,1.25h7.5c0.003,0,0.006,0,0.009,0c3.014-0.004,5.535-2.153,6.115-4.999
				H66.25h5.127c0.188,0.923,0.581,1.773,1.128,2.5h-2.503c-0.69,0-1.25,0.56-1.25,1.25S69.31,85,70.001,85h7.5
				c0.003,0,0.006,0,0.009,0c3.014-0.004,5.535-2.153,6.115-4.999h5.125c0.69,0,1.25-0.56,1.25-1.25V67.5v-5
				C90,58.791,87.292,55.704,83.751,55.106z M60,40.001V42.5H49.268l-2.5-2.499H60z M41.25,38.018l1.616,1.616
				c0.001,0.001,0.001,0.001,0.002,0.002l2.865,2.865h-8.965L41.25,38.018z M42.5,82.5c-2.068,0-3.75-1.682-3.75-3.75
				c0-2.068,1.682-3.75,3.75-3.75c2.068,0,3.75,1.682,3.75,3.75C46.25,80.818,44.567,82.5,42.5,82.5z M65,51.25V72.5h-8.501
				c-0.69,0-1.25,0.56-1.25,1.25s0.56,1.25,1.25,1.25H65v2.5H48.624c-0.581-2.85-3.106-5-6.124-5c-3.018,0-5.544,2.151-6.124,5H32.5
				v-20h5c0.69,0,1.25-0.56,1.25-1.25c0-0.69-0.56-1.25-1.25-1.25h-5v-2.5h15c0.69,0,1.25-0.56,1.25-1.25
				c0-0.69-0.56-1.25-1.25-1.25h-15V45h1.249c0.001,0,0.001,0,0.002,0H65C65,45,65,51.25,65,51.25z M71.377,77.5H67.5V75h5.004
				C71.957,75.727,71.565,76.577,71.377,77.5z M81.25,78.754c-0.002,2.066-1.684,3.746-3.75,3.746c-2.068,0-3.75-1.682-3.75-3.75
				c0-2.065,1.677-3.745,3.741-3.75H77.5c0.001,0,0.002,0,0.003,0c2.065,0.002,3.744,1.681,3.747,3.746c0,0.001,0,0.003,0,0.004
				S81.25,78.753,81.25,78.754z M87.5,77.5h-3.875c-0.581-2.85-3.106-5-6.124-5c-0.003,0-0.006,0-0.01,0H67.5v-20h12.501
				c0.689,0,1.25,0.561,1.25,1.25V55h-8.75c-0.69,0-1.25,0.56-1.25,1.25V67.5c0,0.69,0.56,1.25,1.25,1.25H87.5V77.5z M76.251,57.5
				v8.75h-2.5V57.5H76.251z M87.5,66.25h-8.749V57.5h3.75c2.757,0,4.999,2.243,4.999,5C87.5,62.5,87.5,66.25,87.5,66.25z"/>
			<path d="M51.609,75h0.78c0.69,0,1.25-0.56,1.25-1.25s-0.56-1.25-1.25-1.25h-0.78c-0.69,0-1.25,0.56-1.25,1.25
				S50.919,75,51.609,75z"/>
			<path d="M51.609,52.5h0.78c0.69,0,1.25-0.56,1.25-1.25c0-0.69-0.56-1.25-1.25-1.25h-0.78c-0.69,0-1.25,0.56-1.25,1.25
				C50.359,51.941,50.919,52.5,51.609,52.5z"/>
		</g>
	</g>
</g>
</svg>
