<?xml version="1.0" encoding="iso-8859-1"?>
<!-- Generator: Adobe Illustrator 19.0.0, SVG Export Plug-In . SVG Version: 6.00 Build 0)  -->
<svg version="1.1" id="Capa_1" xmlns="http://www.w3.org/2000/svg" xmlns:xlink="http://www.w3.org/1999/xlink" x="0px" y="0px"
	 viewBox="0 0 511.999 511.999" style="enable-background:new 0 0 511.999 511.999;" xml:space="preserve">
<g>
	<g>
		<path d="M435.442,215.451c-10.389,0-19.226,6.745-22.378,16.083h-28.839V190.79h28.839c3.152,9.339,11.989,16.085,22.378,16.085
			c13.023,0,23.617-10.595,23.617-23.618c0-13.024-10.595-23.617-23.617-23.617c-10.389,0-19.226,6.745-22.378,16.083h-28.839
			v-26.32c0-8.641-6.272-15.828-14.499-17.292c-1.181-12.281-7.063-29.292-23.694-38.781c0.262-1.446,0.502-3.086,0.679-4.861
			c0.045-0.304,0.073-0.608,0.08-0.909c0.599-7.136,0.057-16.285-4.496-24.441c-4.061-7.274-10.459-12.487-19.062-15.548
			c-0.88-6.286-3.526-16.346-11.412-24.313c-7.324-7.397-17.321-11.325-29.749-11.695c-10.022-8.402-30.62-18.173-50.775-5.439
			c-2.185,1.381-3.51,3.785-3.51,6.369v119.329h-16.171V12.495c0-2.585-1.325-4.988-3.51-6.369
			c-20.156-12.737-40.755-2.964-50.775,5.438c-12.426,0.371-22.425,4.297-29.749,11.695c-7.887,7.966-10.531,18.026-11.412,24.313
			c-8.602,3.061-15.001,8.273-19.062,15.548c-4.555,8.157-5.095,17.307-4.496,24.443c0.008,0.299,0.036,0.601,0.08,0.903
			c0.177,1.777,0.417,3.419,0.679,4.865c-16.52,9.427-22.432,26.272-23.669,38.535c-9.313,0.431-16.764,8.121-16.764,17.538v173.581
			c0,4.161,3.373,7.534,7.534,7.534c4.161,0,7.534-3.373,7.534-7.534v-11.483h44.622c4.161,0,7.534-3.373,7.534-7.534
			s-3.373-7.534-7.534-7.534H68.008v-22.389h44.622c4.161,0,7.534-3.373,7.534-7.534s-3.373-7.534-7.534-7.534H68.008V236.59h44.622
			c4.161,0,7.534-3.373,7.534-7.534c0-4.161-3.373-7.534-7.534-7.534H68.008v-72.12c0-1.384,1.127-2.511,2.511-2.511h89.432
			c4.161,0,7.534-3.373,7.534-7.534c0-4.161-3.373-7.534-7.534-7.534h-75.04c1.026-7.729,4.739-19.893,17.554-26.258
			c6.046,6.406,14.831,11.616,26.698,11.616c2.935,0,6.061-0.318,9.377-1.017c4.071-0.858,6.677-4.853,5.82-8.924
			c-0.858-4.072-4.853-6.678-8.924-5.82c-19.301,4.065-26.419-11.701-27.878-15.643c-0.356-4.756,0.021-10.542,2.737-15.366
			c2.755-4.895,7.558-8.078,14.681-9.732c3.454-0.802,5.88-3.947,5.829-7.491c-0.002-0.117-0.078-11.776,7.572-19.414
			c3.003-2.999,6.916-5.058,11.677-6.176c-1.423,6.08-1.357,13.335,1.488,21.628c1.072,3.126,3.996,5.092,7.126,5.092
			c0.811,0,1.634-0.132,2.445-0.41c3.936-1.35,6.032-5.634,4.682-9.57c-5.437-15.852,4.722-23.184,5.959-24.004
			c0.661-0.422,1.233-0.931,1.712-1.503c5.83-3.13,14.236-5.685,23.082-1.832v114.827h-10.135c-4.161,0-7.534,3.373-7.534,7.534
			c0,4.161,3.373,7.534,7.534,7.534h48.907h127.02h4.304c1.384,0,2.511,1.127,2.511,2.511v128.529h-63.039V249.86h45.639
			c4.161,0,7.534-3.373,7.534-7.534v-17.714c0-4.161-3.373-7.534-7.534-7.534c-4.161,0-7.534,3.373-7.534,7.534v10.177h-38.105
			v-13.582c0-9.693-7.887-17.579-17.579-17.579H148.628c-9.693,0-17.579,7.887-17.579,17.579v127.001
			c0,9.693,7.887,17.579,17.579,17.579h139.911c9.693,0,17.579-7.887,17.579-17.579v-30.756h63.039v102.561
			c0,1.384-1.127,2.511-2.511,2.511H70.519c-1.384,0-2.511-1.127-2.511-2.511v-68.18c0-4.161-3.373-7.534-7.534-7.534
			c-4.161,0-7.534,3.373-7.534,7.534v68.18c0,9.693,7.887,17.579,17.579,17.579h21.849v28.41
			c-9.339,3.152-16.083,11.99-16.083,22.379c0,13.023,10.595,23.617,23.617,23.617c13.023,0,23.618-10.595,23.618-23.617
			c0-10.389-6.745-19.226-16.085-22.379v-28.41h41.685v28.276c-9.339,3.152-16.084,11.989-16.084,22.378
			c0,13.023,10.595,23.617,23.617,23.617s23.617-10.595,23.617-23.617c0-10.389-6.745-19.226-16.084-22.378v-28.276h40.745v28.276
			c-9.339,3.152-16.083,11.989-16.083,22.378c0,13.023,10.595,23.617,23.617,23.617s23.617-10.595,23.617-23.617
			c0-10.389-6.745-19.226-16.083-22.378v-28.276h146.644c9.693,0,17.579-7.887,17.579-17.579V246.603h28.839
			c3.152,9.339,11.989,16.084,22.378,16.084c13.023,0,23.617-10.595,23.617-23.618C459.059,226.045,448.465,215.451,435.442,215.451
			z M435.442,174.706c4.714,0,8.55,3.835,8.55,8.55s-3.835,8.551-8.55,8.551c-4.714,0-8.549-3.835-8.549-8.551
			C426.893,178.542,430.728,174.706,435.442,174.706z M242.855,131.821V16.997c8.851-3.852,17.258-1.297,23.084,1.831
			c0.495,0.59,1.087,1.115,1.775,1.545c0.474,0.296,11.555,7.453,5.894,23.962c-1.35,3.936,0.746,8.221,4.682,9.57
			c0.81,0.278,1.633,0.41,2.445,0.41c3.13,0,6.054-1.966,7.126-5.092c2.845-8.295,2.911-15.553,1.486-21.635
			c4.762,1.118,8.674,3.182,11.679,6.182c7.651,7.638,7.574,19.298,7.573,19.372c-0.092,3.576,2.344,6.724,5.828,7.533
			c7.123,1.653,11.926,4.837,14.681,9.732c2.716,4.826,3.092,10.611,2.737,15.366c-1.458,3.941-8.572,19.706-27.878,15.643
			c-4.075-0.855-8.067,1.75-8.924,5.82c-0.857,4.071,1.749,8.067,5.82,8.924c3.318,0.699,6.441,1.018,9.377,1.018
			c11.87,0,20.656-5.215,26.703-11.623c12.819,6.366,16.529,18.545,17.553,26.264H242.855z M291.049,348.209
			c0,1.384-1.127,2.511-2.511,2.511H148.628c-1.384,0-2.511-1.127-2.511-2.511v-127c0-1.384,1.127-2.511,2.511-2.511h139.911
			c1.384,0,2.511,1.127,2.511,2.511V348.209z M369.157,302.385h-63.039V293h63.039V302.385z M108.452,488.382
			c0,4.713-3.836,8.549-8.551,8.549c-4.714,0-8.55-3.835-8.55-8.549s3.835-8.551,8.55-8.551
			C104.616,479.832,108.452,483.667,108.452,488.382z M165.204,488.248c0,4.713-3.835,8.549-8.55,8.549s-8.55-3.835-8.55-8.549
			c0-4.709,3.828-8.542,8.535-8.549c0.005,0,0.01,0.001,0.014,0.001s0.01-0.001,0.014-0.001
			C161.376,479.707,165.204,483.54,165.204,488.248z M221.017,488.248c0,4.713-3.835,8.549-8.549,8.549
			c-4.714,0-8.55-3.835-8.55-8.549c0-4.709,3.828-8.542,8.535-8.549c0.005,0,0.01,0.001,0.014,0.001s0.01-0.001,0.014-0.001
			C217.189,479.707,221.017,483.54,221.017,488.248z M435.442,247.619c-4.714,0-8.549-3.835-8.549-8.551
			c0-4.714,3.835-8.55,8.549-8.55c4.714,0,8.55,3.835,8.55,8.55C443.992,243.783,440.157,247.619,435.442,247.619z"/>
	</g>
</g>
<g>
	<g>
		<path d="M250.921,267.45h-63.377c-11.349,0-20.582,9.233-20.582,20.582c0,11.349,9.233,20.582,20.582,20.582h63.377
			c11.348,0,20.582-9.233,20.582-20.582C271.502,276.683,262.27,267.45,250.921,267.45z M250.921,293.545h-63.377
			c-3.041,0-5.514-2.473-5.514-5.514c0-3.04,2.473-5.514,5.514-5.514h63.377c3.04,0,5.514,2.473,5.514,5.514
			C256.434,291.072,253.961,293.545,250.921,293.545z"/>
	</g>
</g>
<g>
	<g>
		<path d="M100.14,160.901c-11.043-0.001-20.026,8.982-20.026,20.025s8.983,20.026,20.026,20.026
			c11.042,0,20.025-8.984,20.025-20.026C120.165,169.885,111.182,160.901,100.14,160.901z M100.14,185.885
			c-2.734,0-4.958-2.224-4.958-4.958c0-2.733,2.224-4.957,4.958-4.957c2.733-0.001,4.957,2.223,4.957,4.957
			S102.873,185.885,100.14,185.885z"/>
	</g>
</g>
<g>
	<g>
		<path d="M339.265,160.901c-11.043,0-20.026,8.984-20.026,20.025c0,11.043,8.983,20.026,20.026,20.026
			c11.042-0.001,20.025-8.984,20.025-20.026C359.29,169.885,350.307,160.901,339.265,160.901z M339.265,185.885
			c-2.734-0.001-4.958-2.225-4.958-4.958c0-2.733,2.224-4.957,4.958-4.957c2.733,0,4.957,2.224,4.957,4.957
			C344.222,183.661,341.998,185.885,339.265,185.885z"/>
	</g>
</g>
<g>
	<g>
		<path d="M100.14,369.98c-11.043,0-20.026,8.983-20.026,20.025c0,11.043,8.983,20.026,20.026,20.026
			c11.042-0.001,20.025-8.984,20.025-20.026C120.165,378.963,111.182,369.98,100.14,369.98z M100.14,394.963
			c-2.734-0.001-4.958-2.225-4.958-4.958c0-2.733,2.224-4.957,4.958-4.957c2.733,0,4.957,2.224,4.957,4.957
			C105.097,392.739,102.873,394.963,100.14,394.963z"/>
	</g>
</g>
<g>
	<g>
		<path d="M339.265,369.98c-11.043,0-20.026,8.983-20.026,20.025c0,11.043,8.983,20.026,20.026,20.026
			c11.042-0.001,20.025-8.984,20.025-20.026C359.29,378.963,350.307,369.98,339.265,369.98z M339.265,394.963
			c-2.734-0.001-4.958-2.225-4.958-4.958c0-2.733,2.224-4.957,4.958-4.957c2.733,0,4.957,2.224,4.957,4.957
			C344.222,392.739,341.998,394.963,339.265,394.963z"/>
	</g>
</g>
<g>
</g>
<g>
</g>
<g>
</g>
<g>
</g>
<g>
</g>
<g>
</g>
<g>
</g>
<g>
</g>
<g>
</g>
<g>
</g>
<g>
</g>
<g>
</g>
<g>
</g>
<g>
</g>
<g>
</g>
</svg>
