<?xml version="1.0" encoding="utf-8"?>
<!-- Generator: Adobe Illustrator 17.0.0, SVG Export Plug-In . SVG Version: 6.00 Build 0)  -->
<!DOCTYPE svg PUBLIC "-//W3C//DTD SVG 1.1//EN" "http://www.w3.org/Graphics/SVG/1.1/DTD/svg11.dtd">
<svg version="1.1" id="Layer_1" xmlns="http://www.w3.org/2000/svg" xmlns:xlink="http://www.w3.org/1999/xlink" x="0px" y="0px"
	 width="600px" height="600px" viewBox="0 0 600 600" enable-background="new 0 0 600 600" xml:space="preserve">
<g>
	<path fill="#FFE5E5" d="M384.792,500.879c25.205-10.629,48.822-26.195,69.357-46.73c20.535-20.535,36.101-44.152,46.73-69.357
		L384.792,500.879z"/>
	<g>
		<path fill="#FFE5E5" d="M516.334,326.91L326.91,516.334c9.404-1.163,18.744-2.945,27.96-5.333l156.131-156.131
			C513.389,345.654,515.171,336.314,516.334,326.91z"/>
		<path fill="#FFE5E5" d="M517.366,283.452L283.452,517.366c7.343,0.556,14.708,0.746,22.066,0.561l212.409-212.409
			C518.112,298.16,517.922,290.795,517.366,283.452z"/>
		<path fill="#FFE5E5" d="M511.464,246.928L246.928,511.464c6.219,1.555,12.492,2.827,18.801,3.826l249.56-249.56
			C514.291,259.42,513.018,253.147,511.464,246.928z"/>
		<path fill="#FFE5E5" d="M500.843,215.122L215.122,500.843c5.416,2.286,10.903,4.347,16.451,6.176l275.446-275.446
			C505.19,226.025,503.13,220.538,500.843,215.122z"/>
		<path fill="#FFE5E5" d="M486.494,187.045L187.045,486.494c4.767,2.892,9.619,5.586,14.548,8.08l292.981-292.981
			C492.08,196.664,489.386,191.812,486.494,187.045z"/>
		<path fill="#FFE5E5" d="M468.928,162.185L162.185,468.928c4.196,3.432,8.492,6.681,12.875,9.753l303.621-303.621
			C475.609,170.677,472.36,166.381,468.928,162.185z"/>
		<path fill="#FFE5E5" d="M454.149,145.851c-1.895-1.895-3.825-3.732-5.771-5.543l-308.07,308.07
			c1.81,1.946,3.648,3.876,5.543,5.771c1.895,1.895,3.825,3.732,5.771,5.543l308.07-308.07
			C457.882,149.676,456.044,147.746,454.149,145.851z"/>
		<path fill="#FFE5E5" d="M424.941,121.319L121.319,424.941c3.072,4.382,6.321,8.678,9.753,12.875l306.743-306.743
			C433.619,127.64,429.323,124.391,424.941,121.319z"/>
		<path fill="#FFE5E5" d="M398.407,105.426L105.426,398.407c2.494,4.929,5.188,9.781,8.08,14.548l299.449-299.449
			C408.188,110.614,403.336,107.92,398.407,105.426z"/>
		<path fill="#FFE5E5" d="M368.426,92.981L92.981,368.426c1.829,5.548,3.89,11.036,6.176,16.451L384.878,99.157
			C379.462,96.87,373.975,94.81,368.426,92.981z"/>
		<path fill="#FFE5E5" d="M334.27,84.71L84.71,334.27c0.999,6.309,2.271,12.583,3.826,18.802L353.072,88.536
			C346.853,86.982,340.58,85.709,334.27,84.71z"/>
		<path fill="#FFE5E5" d="M294.482,82.073L82.073,294.482c-0.185,7.358,0.005,14.723,0.561,22.066L316.548,82.634
			C309.205,82.078,301.84,81.888,294.482,82.073z"/>
		<path fill="#FFE5E5" d="M245.129,88.998L88.998,245.129c-2.387,9.217-4.17,18.557-5.333,27.96L273.09,83.666
			C263.686,84.829,254.346,86.611,245.129,88.998z"/>
		<path fill="#FFE5E5" d="M145.851,145.851c-20.535,20.535-36.101,44.152-46.73,69.357L215.208,99.121
			C190.003,109.75,166.386,125.316,145.851,145.851z"/>
	</g>
</g>
</svg>
