<?xml version="1.0" encoding="utf-8"?>
<!-- Generator: Adobe Illustrator 17.0.0, SVG Export Plug-In . SVG Version: 6.00 Build 0)  -->
<!DOCTYPE svg PUBLIC "-//W3C//DTD SVG 1.1//EN" "http://www.w3.org/Graphics/SVG/1.1/DTD/svg11.dtd">
<svg version="1.1" id="Layer_1" xmlns="http://www.w3.org/2000/svg" xmlns:xlink="http://www.w3.org/1999/xlink" x="0px" y="0px"
	 width="50px" height="56px" viewBox="7 4 50 56" enable-background="new 7 4 50 56" xml:space="preserve">
<g>
	<rect x="7" y="4" fill="none" width="50" height="56"/>
	<g>
		<g>
			<path d="M25.142,24.144c-0.449,0-0.814,0.364-0.814,0.814v2.237c0,0.279-0.415,0.591-0.969,0.591
				c-0.449,0-0.814,0.364-0.814,0.814s0.364,0.814,0.814,0.814c1.432,0,2.597-0.995,2.597-2.218v-2.237
				C25.956,24.508,25.591,24.144,25.142,24.144z"/>
		</g>
	</g>
	<g>
		<g>
			<path d="M28.311,31.428c-0.3-0.335-0.814-0.363-1.149-0.063c-1.538,1.379-4.31,1.354-5.597-0.051
				c-0.303-0.332-0.818-0.354-1.15-0.051c-0.332,0.303-0.354,0.818-0.051,1.15c0.98,1.07,2.452,1.61,3.952,1.61
				c1.414,0,2.853-0.479,3.932-1.446C28.583,32.277,28.611,31.763,28.311,31.428z"/>
		</g>
	</g>
	<g>
		<g>
			<path d="M21.536,23.247c-0.53-0.53-1.236-0.823-1.986-0.823s-1.456,0.292-1.986,0.823c-0.318,0.318-0.318,0.833,0,1.151
				c0.318,0.318,0.833,0.318,1.151,0c0.223-0.223,0.52-0.346,0.835-0.346c0.315,0,0.612,0.123,0.835,0.346
				c0.159,0.159,0.367,0.238,0.575,0.238s0.416-0.079,0.575-0.238C21.854,24.08,21.854,23.565,21.536,23.247z"/>
		</g>
	</g>
	<g>
		<g>
			<path d="M31.751,23.247c-1.095-1.095-2.877-1.095-3.972,0c-0.318,0.318-0.318,0.833,0,1.151c0.318,0.318,0.833,0.318,1.151,0
				c0.223-0.223,0.52-0.346,0.835-0.346c0.315,0,0.612,0.123,0.835,0.346c0.159,0.159,0.367,0.238,0.575,0.238
				s0.416-0.079,0.575-0.238C32.068,24.08,32.068,23.564,31.751,23.247z"/>
		</g>
	</g>
	<g>
		<g>
			<path d="M56.031,46.902c-0.153-0.302-0.37-0.55-0.625-0.739c0.035-0.075,0.067-0.152,0.093-0.232
				c0.176-0.539,0.133-1.112-0.122-1.616c-0.224-0.443-0.584-0.771-1.003-0.964c0.093-0.452,0.041-0.937-0.184-1.379
				c-0.44-0.868-1.4-1.301-2.311-1.116l-2.112-4.273c-0.057-0.115-0.14-0.215-0.244-0.292l-2.141-1.594
				c-0.245-0.183-0.572-0.212-0.846-0.077c-0.274,0.135-0.449,0.413-0.453,0.719l-0.034,2.669c-0.002,0.129,0.027,0.256,0.084,0.371
				l0.923,1.868c-0.193,0.037-0.384,0.101-0.566,0.196l-3.071,1.607c-0.257,0.134-0.423,0.396-0.436,0.686l-0.24,5.563l-2.822,2.762
				v-3.396c0-2.969-2.416-5.385-5.385-5.385h-5.413v-0.934h9.44c1.047,0,1.899-0.852,1.899-1.899V28.142c0-0.001,0-0.002,0-0.003
				c0.483-0.629,0.771-1.415,0.771-2.268s-0.288-1.639-0.771-2.268v-2.595c0-9.099-7.335-16.504-16.352-16.509
				c-0.003,0-0.006,0-0.009,0c-4.368,0-8.476,1.701-11.566,4.789c-3.092,3.09-4.795,7.2-4.794,11.578L7.898,39.46
				c0.009,1.038,0.86,1.883,1.899,1.883h9.374v0.934h-5.608c-2.969,0-5.385,2.416-5.385,5.385v3.226
				c0,0.449,0.364,0.814,0.814,0.814c0.449,0,0.814-0.364,0.814-0.814v-3.226c0-2.072,1.686-3.758,3.758-3.758h2.28v1.067
				c0,4.586,7.602,8.042,7.925,8.187c0.106,0.047,0.219,0.071,0.333,0.071c0.113,0,0.227-0.024,0.333-0.071
				c0.324-0.145,7.926-3.601,7.926-8.187v-1.067h2.177c2.072,0,3.758,1.686,3.758,3.758v5.331c0,0.328,0.196,0.623,0.498,0.75
				c0.302,0.127,0.651,0.061,0.885-0.169l3.878-3.796l3.282,2.564l-5.978,5.528h-6.319v-5.221c0-0.449-0.364-0.814-0.814-0.814
				c-0.449,0-0.814,0.364-0.814,0.814v5.221H15.186v-5.221c0-0.449-0.364-0.814-0.814-0.814c-0.449,0-0.814,0.364-0.814,0.814v5.221
				H9.805v-2.994c0-0.449-0.364-0.814-0.814-0.814s-0.814,0.364-0.814,0.814v3.808c0,0.449,0.364,0.814,0.814,0.814h24.734h7.451
				c0.205,0,0.402-0.077,0.552-0.216l6.914-6.394c0.089-0.083,0.158-0.184,0.202-0.294l1.836-0.261
				c0.118-0.017,0.232-0.06,0.332-0.125l2.625-1.722l1.461-0.74c0.503-0.255,0.878-0.692,1.054-1.231
				C56.329,47.979,56.286,47.405,56.031,46.902z M38.833,39.445c0,0.15-0.122,0.271-0.271,0.271h-8.107
				c3.93-1.926,6.809-5.679,7.523-10.145c0.298-0.038,0.584-0.111,0.856-0.216L38.833,39.445L38.833,39.445z M39.604,25.871
				c0,0.937-0.615,1.732-1.463,2.004c0.005-0.158,0.009-0.315,0.009-0.474V23.87C38.993,24.145,39.604,24.938,39.604,25.871z
				 M26.013,16.169c-2.722-1.031-5.234-2.343-7.466-3.899c-0.369-0.257-0.876-0.167-1.133,0.202
				c-0.257,0.369-0.167,0.876,0.202,1.133c0.195,0.136,0.392,0.269,0.591,0.401c-0.493,1.602-2.396,6.546-7.958,10.307
				c-0.372,0.252-0.47,0.758-0.218,1.13c0.157,0.233,0.414,0.358,0.675,0.358c0.011,0,0.021-0.002,0.032-0.002v1.602
				c0,5.403,3.142,10.084,7.695,12.316H9.796c-0.148,0-0.27-0.121-0.271-0.269L9.368,20.86c0-3.937,1.533-7.637,4.318-10.42
				c2.783-2.781,6.481-4.313,10.415-4.313c0.002,0,0.005,0,0.008,0c8.12,0.004,14.725,6.68,14.725,14.882v1.377
				c-0.219-0.084-0.447-0.148-0.683-0.189v-2.852c0-0.449-0.364-0.814-0.814-0.814c-0.001,0-0.002,0-0.004,0
				c-1.692-0.001-4.721-0.347-8.155-1.318c-0.432-0.122-0.882,0.129-1.004,0.561s0.129,0.882,0.561,1.005
				c3.106,0.879,5.919,1.269,7.788,1.359v7.264c0,6.66-5.418,12.079-12.079,12.079s-12.079-5.419-12.079-12.079v-2.609
				c4.72-3.634,6.607-7.914,7.268-9.887c1.804,1.074,3.746,2.008,5.803,2.786c0.095,0.036,0.192,0.053,0.288,0.053
				c0.328,0,0.638-0.2,0.761-0.526C26.645,16.798,26.433,16.328,26.013,16.169z M30.731,44.973c0,2.779-4.508,5.525-6.631,6.547
				c-2.123-1.021-6.63-3.768-6.63-6.547v-1.067h1.7v0.807c0,0.449,0.364,0.814,0.814,0.814s0.814-0.364,0.814-0.814v-4.099
				c1.162,0.321,2.384,0.493,3.646,0.493c1.048,0,2.07-0.119,3.051-0.343v3.949c0,0.449,0.364,0.814,0.814,0.814
				s0.814-0.364,0.814-0.814v-0.807h1.609L30.731,44.973L30.731,44.973z M52.041,42.51l0.037-0.019
				c0.069-0.035,0.143-0.051,0.216-0.051c0.181,0,0.358,0.099,0.443,0.267c0.12,0.237,0.021,0.539-0.216,0.659l-3.467,1.757
				c-0.237,0.12-0.539,0.021-0.659-0.216c-0.059-0.115-0.068-0.248-0.027-0.374c0.041-0.125,0.127-0.227,0.243-0.285l0.979-0.496
				c0.03-0.011,0.059-0.023,0.087-0.037l2.175-1.075C51.923,42.605,51.986,42.56,52.041,42.51z M47.689,36.954l0.705,0.525
				l1.998,4.042l-0.713,0.361l-2.001-4.05L47.689,36.954z M50.272,50.749l-2.399,0.341l-3.505-2.739l0.219-5.078l2.656-1.389
				c0.207-0.108,0.466-0.029,0.576,0.177c0.111,0.208,0.033,0.467-0.174,0.579l-1.281,0.69c-0.367,0.197-0.525,0.641-0.367,1.026
				c0.274,0.667,0.597,1.976,0.3,2.648c-0.182,0.411,0.004,0.892,0.415,1.074c0.411,0.182,0.892-0.004,1.073-0.415
				c0.055-0.124,0.099-0.252,0.134-0.383c0.028,0.239,0.096,0.478,0.211,0.705c0.255,0.503,0.692,0.878,1.231,1.054
				c0.218,0.071,0.442,0.107,0.664,0.107c0.067,0,0.135-0.004,0.202-0.011c0.035,0.208,0.101,0.412,0.199,0.605
				c0.117,0.232,0.275,0.435,0.462,0.605L50.272,50.749z M51.268,46.946l-1.026,0.52c-0.115,0.058-0.248,0.068-0.374,0.027
				s-0.227-0.128-0.285-0.243c-0.12-0.237-0.021-0.539,0.216-0.659l3.467-1.757c0.069-0.035,0.143-0.051,0.216-0.051
				c0.18,0,0.357,0.099,0.443,0.267c0.059,0.116,0.068,0.248,0.027,0.374c-0.041,0.125-0.127,0.227-0.243,0.285l-0.431,0.218
				c-0.031,0.014-0.063,0.026-0.094,0.042l-1.826,0.925C51.327,46.911,51.298,46.929,51.268,46.946z M54.606,48.011
				c-0.041,0.125-0.127,0.227-0.243,0.285l-1.827,0.925c-0.116,0.059-0.248,0.068-0.374,0.027c-0.125-0.041-0.227-0.127-0.285-0.243
				c-0.059-0.115-0.068-0.248-0.027-0.374c0.036-0.109,0.107-0.197,0.2-0.258l1.931-0.978c0.051-0.017,0.103-0.026,0.155-0.026
				c0.18,0,0.358,0.099,0.443,0.267C54.638,47.753,54.647,47.885,54.606,48.011z"/>
		</g>
	</g>
</g>
</svg>
