<?xml version="1.0" encoding="utf-8"?>
<!-- Generator: Adobe Illustrator 17.0.0, SVG Export Plug-In . SVG Version: 6.00 Build 0)  -->
<!DOCTYPE svg PUBLIC "-//W3C//DTD SVG 1.1//EN" "http://www.w3.org/Graphics/SVG/1.1/DTD/svg11.dtd">
<svg version="1.1" id="Layer_1" xmlns="http://www.w3.org/2000/svg" xmlns:xlink="http://www.w3.org/1999/xlink" x="0px" y="0px"
	 width="64px" height="64px" viewBox="28 28 64 64" enable-background="new 28 28 64 64" xml:space="preserve">
<g>
	<g>
		<g>
			<path d="M45.058,69.472c-0.527-0.446-1.316-0.379-1.762,0.148c-0.172,0.204-0.342,0.412-0.506,0.621
				c-0.426,0.543-0.332,1.329,0.211,1.755c0.229,0.18,0.501,0.267,0.771,0.267c0.371,0,0.737-0.164,0.984-0.478
				c0.145-0.185,0.296-0.37,0.449-0.551C45.652,70.706,45.585,69.917,45.058,69.472z"/>
			<path d="M68.121,44.975c0.237,0.207,0.53,0.309,0.822,0.309c0.348,0,0.695-0.145,0.942-0.427
				c0.172-0.197,0.329-0.394,0.468-0.586c0.403-0.56,0.276-1.341-0.284-1.745c-0.56-0.403-1.342-0.276-1.745,0.284
				c-0.093,0.129-0.201,0.264-0.321,0.402C67.548,43.731,67.601,44.521,68.121,44.975z"/>
			<path d="M88.75,82.499h-1.905c-0.212-4.599-1.594-9.055-4.029-12.957c-2.369-3.797-5.645-6.938-9.518-9.147
				c0.161-0.422,0.311-0.892,0.456-1.419h2.577c2.345,0,4.252-1.907,4.252-4.252v-3.939c0-2.344-1.907-4.252-4.252-4.252h-0.444
				c0.109-1.698,0.049-3.333-0.344-4.648c-1.084-3.629-3.141-6.658-5.949-8.758C66.86,31.082,63.542,30,60,30
				c-3.542,0-6.86,1.081-9.596,3.127c-2.807,2.1-4.865,5.128-5.949,8.758c-0.393,1.314-0.452,2.95-0.344,4.648h-0.443
				c-2.345,0-4.252,1.907-4.252,4.252v3.939c0,2.345,1.907,4.252,4.252,4.252h2.577c0.144,0.528,0.295,0.997,0.456,1.419
				c-3.873,2.209-7.148,5.35-9.518,9.147c-2.435,3.903-3.816,8.358-4.029,12.957H31.25c-0.69,0-1.25,0.56-1.25,1.25
				S30.56,85,31.25,85h3.125h8.195l1.233,4.109C43.962,89.638,44.448,90,45,90h24.601c0.002,0,0.004,0,0.006,0
				c0.003,0,0.006,0,0.009,0H75c0.552,0,1.039-0.362,1.197-0.891L77.43,85h8.195h3.125c0.69,0,1.25-0.56,1.25-1.25
				C90,83.059,89.44,82.499,88.75,82.499z M74.621,54.764c0.066-0.399,0.165-0.915,0.279-1.512c0.236-1.232,0.518-2.7,0.728-4.22
				h0.704v0c0.966,0,1.752,0.786,1.752,1.752v3.939c0,0.966-0.786,1.752-1.752,1.752h-2.013
				C74.42,55.947,74.52,55.379,74.621,54.764z M43.669,56.475L43.669,56.475c-0.966,0-1.752-0.786-1.752-1.752v-3.939
				c0-0.966,0.786-1.752,1.752-1.752h0.703c0.21,1.519,0.491,2.987,0.727,4.218c0.115,0.598,0.214,1.114,0.279,1.514
				c0.101,0.615,0.201,1.183,0.302,1.711H43.669z M46.608,46.378c-0.095-1.436-0.055-2.779,0.243-3.778
				C48.712,36.37,53.751,32.5,60,32.5c6.25,0,11.288,3.871,13.149,10.101c0.374,1.252,0.342,3.045,0.148,4.884
				c-0.024,0.096-0.037,0.195-0.037,0.298c0,0.009,0.001,0.018,0.001,0.027c-0.207,1.794-0.553,3.604-0.816,4.972
				c-0.118,0.615-0.22,1.146-0.291,1.577c-0.174,1.058-0.338,1.952-0.502,2.715c-1.844,1.676-4.982,2.823-8.167,3.094
				c-0.09-0.602-0.608-1.063-1.235-1.063H60c-0.69,0-1.25,0.56-1.25,1.25v1c0,0.013,0.002,0.027,0.002,0.04
				c0.001,0.025,0.002,0.05,0.004,0.075c0.002,0.017,0.004,0.034,0.007,0.051c0.003,0.024,0.006,0.047,0.011,0.071
				c0.004,0.019,0.008,0.037,0.013,0.055c0.005,0.021,0.01,0.042,0.016,0.062c0.006,0.02,0.013,0.039,0.02,0.059
				c0.006,0.018,0.013,0.037,0.02,0.055c0.008,0.02,0.017,0.04,0.027,0.06c0.008,0.017,0.015,0.033,0.024,0.049
				c0.01,0.019,0.021,0.038,0.032,0.057c0.009,0.016,0.019,0.032,0.028,0.047c0.012,0.018,0.024,0.035,0.037,0.052
				c0.011,0.015,0.022,0.031,0.034,0.046c0.013,0.016,0.026,0.03,0.039,0.045c0.013,0.015,0.027,0.031,0.041,0.045
				c0.013,0.013,0.026,0.026,0.04,0.039c0.016,0.015,0.032,0.03,0.048,0.044c0.013,0.011,0.028,0.022,0.042,0.033
				c0.018,0.014,0.036,0.028,0.054,0.04c0.015,0.01,0.03,0.019,0.045,0.029c0.019,0.012,0.038,0.024,0.057,0.035
				c0.017,0.009,0.034,0.018,0.051,0.026c0.019,0.009,0.038,0.019,0.057,0.028c0.019,0.008,0.039,0.016,0.059,0.024
				c0.018,0.007,0.036,0.014,0.054,0.02c0.022,0.007,0.045,0.013,0.068,0.019c0.017,0.004,0.034,0.009,0.051,0.013
				c0.024,0.005,0.048,0.009,0.073,0.013c0.013,0.002,0.026,0.005,0.04,0.007c0.008,0.001,0.016,0.002,0.024,0.002
				c0.003,0,0.006,0.001,0.009,0.001c0.712,0.089,1.438,0.132,2.17,0.132c2.82,0,5.711-0.638,8.094-1.747
				c-0.596,0.743-1.37,1.236-2.484,1.945c-0.465,0.296-0.991,0.63-1.577,1.027c-2.019,1.158-4.064,1.745-6.079,1.745
				c-2.015,0-4.06-0.587-6.078-1.745c-0.586-0.396-1.112-0.731-1.577-1.027c-2.219-1.412-3.091-1.967-3.884-5.353
				c-0.011-0.087-0.03-0.171-0.058-0.252c-0.183-0.816-0.363-1.789-0.557-2.964c-0.071-0.432-0.173-0.963-0.291-1.579
				c-0.21-1.098-0.476-2.481-0.679-3.912c2.295-0.32,7.216-1.151,10.531-2.742l0.821,1.97c0.084,0.201,0.153,0.379,0.214,0.533
				c0.276,0.703,0.537,1.367,1.319,1.631c0.187,0.063,0.367,0.091,0.551,0.091c0.437,0,0.898-0.157,1.537-0.376
				c0.176-0.06,0.374-0.128,0.597-0.201c0.867-0.286,2.607-1.149,4.254-2.244c0.575-0.382,0.731-1.158,0.349-1.733
				c-0.382-0.575-1.158-0.731-1.733-0.349c-1.537,1.022-3.062,1.757-3.654,1.952c-0.233,0.077-0.439,0.147-0.622,0.21
				c-0.091,0.031-0.186,0.064-0.277,0.094c-0.065-0.165-0.139-0.354-0.229-0.569l-1.358-3.258c-0.143-0.343-0.431-0.604-0.786-0.714
				c-0.355-0.109-0.74-0.055-1.051,0.148C54.637,45.073,49.091,46.026,46.608,46.378z M75.307,83.376
				c0,0.002-0.001,0.003-0.001,0.004l-1.236,4.119h-2.835l0.52-1.942c0.179-0.667-0.217-1.352-0.884-1.531
				c-0.667-0.179-1.352,0.217-1.531,0.884l-0.694,2.589H45.93l-1.233-4.111c-0.002-0.006-0.004-0.012-0.006-0.019l-1.761-5.871
				h2.755l0.694,2.589c0.15,0.559,0.655,0.927,1.207,0.927c0.107,0,0.216-0.014,0.324-0.043c0.667-0.179,1.063-0.864,0.884-1.531
				l-0.52-1.942H77.07L75.307,83.376z M78.18,82.499l1.767-5.891c0.114-0.379,0.041-0.789-0.194-1.106
				c-0.236-0.317-0.608-0.504-1.003-0.504h-37.5c-0.395,0-0.767,0.187-1.003,0.504s-0.308,0.727-0.194,1.106l1.767,5.891h-6.163
				c0.419-8.32,5.012-15.784,12.259-19.92c0.541,0.664,1.191,1.193,2.006,1.751c-1.218,0.633-2.381,1.382-3.455,2.229
				c-0.542,0.427-0.636,1.213-0.209,1.755c0.247,0.313,0.613,0.477,0.983,0.477c0.271,0,0.543-0.088,0.773-0.268
				c0.982-0.773,2.046-1.455,3.163-2.028l1.158-0.594c0.074,0.05,0.147,0.098,0.223,0.149l0.077,0.048
				c2.416,1.395,4.894,2.102,7.366,2.102c0,0,0,0,0,0c2.472,0,4.951-0.707,7.367-2.102l0.077-0.048
				c0.571-0.387,1.093-0.719,1.554-1.012c1.348-0.857,2.325-1.524,3.086-2.458c7.248,4.136,11.84,11.6,12.26,19.92L78.18,82.499
				L78.18,82.499z"/>
			<path d="M48.282,82.36c-0.667,0.179-1.062,0.864-0.884,1.531l0.146,0.544c0.15,0.558,0.655,0.927,1.207,0.927
				c0.107,0,0.216-0.014,0.324-0.043c0.667-0.179,1.062-0.864,0.884-1.531l-0.146-0.544C49.634,82.577,48.949,82.182,48.282,82.36z"
				/>
			<path d="M71.242,82.638c0.108,0.029,0.217,0.043,0.325,0.043c0.552,0,1.057-0.368,1.207-0.926l0.146-0.544
				c0.179-0.667-0.216-1.352-0.883-1.531c-0.667-0.179-1.352,0.217-1.531,0.883l-0.146,0.544
				C70.18,81.774,70.575,82.459,71.242,82.638z"/>
		</g>
	</g>
</g>
</svg>
