<?xml version="1.0" encoding="utf-8"?>
<!-- Generator: Adobe Illustrator 17.0.0, SVG Export Plug-In . SVG Version: 6.00 Build 0)  -->
<!DOCTYPE svg PUBLIC "-//W3C//DTD SVG 1.1//EN" "http://www.w3.org/Graphics/SVG/1.1/DTD/svg11.dtd">
<svg version="1.1" id="Layer_1" xmlns="http://www.w3.org/2000/svg" xmlns:xlink="http://www.w3.org/1999/xlink" x="0px" y="0px"
	 width="54px" height="56px" viewBox="5 4 54 56" enable-background="new 5 4 54 56" xml:space="preserve">
<g>
	<rect x="5" y="4" fill="none" width="54" height="56"/>
	<g>
		<g>
			<path d="M28.333,21.917c-1.516,0-2.75,1.234-2.75,2.75h1.833c0-0.505,0.411-0.917,0.917-0.917s0.917,0.412,0.917,0.917h1.833
				C31.083,23.151,29.849,21.917,28.333,21.917z"/>
		</g>
	</g>
	<g>
		<g>
			<path d="M35.667,21.917c-1.516,0-2.75,1.234-2.75,2.75h1.833c0-0.505,0.411-0.917,0.917-0.917s0.917,0.412,0.917,0.917h1.833
				C38.417,23.151,37.183,21.917,35.667,21.917z"/>
		</g>
	</g>
	<g>
		<g>
			<path d="M32,46.667c-2.022,0-3.667,1.644-3.667,3.667S29.978,54,32,54s3.667-1.645,3.667-3.667S34.022,46.667,32,46.667z
				 M32,52.167c-1.011,0-1.833-0.822-1.833-1.833s0.822-1.833,1.833-1.833c1.011,0,1.833,0.822,1.833,1.833
				C33.833,51.344,33.011,52.167,32,52.167z"/>
		</g>
	</g>
	<g>
		<g>
			<path d="M54,57.667V45.75C54,38.168,47.832,32,40.25,32h-0.998c0.326-0.287,0.633-0.593,0.924-0.917h0.991
				c2.527,0,4.583-2.056,4.583-4.583v-1.615c1.105-0.741,1.833-2,1.833-3.427c0-1.432-0.734-2.693-1.844-3.433
				C45.617,10.548,39.507,4.5,32,4.5s-13.617,6.048-13.739,13.525c-1.11,0.74-1.844,2.001-1.844,3.433
				c0,2.274,1.851,4.125,4.125,4.125h0.624c0.429,2.54,1.727,4.783,3.583,6.417H23.75C16.168,32,10,38.168,10,45.75v11.917H5.5V59.5
				h5.417H15.5h33h4.583H58.5v-1.833H54z M43.917,26.5c0,1.391-1.041,2.531-2.382,2.712c0.635-1.105,1.081-2.328,1.3-3.629h0.624
				c0.157,0,0.306-0.029,0.458-0.047V26.5z M45.75,21.458c0,1.263-1.028,2.292-2.292,2.292H43v-4.583h0.458
				C44.722,19.167,45.75,20.195,45.75,21.458z M21,23.75h-0.458c-1.264,0-2.292-1.028-2.292-2.292c0-1.263,1.028-2.292,2.292-2.292
				H21V23.75z M20.542,17.333c-0.142,0-0.276,0.027-0.414,0.042C20.578,11.213,25.724,6.333,32,6.333s11.422,4.879,11.873,11.042
				c-0.138-0.015-0.272-0.042-0.414-0.042h-0.624C41.958,12.139,37.439,8.167,32,8.167s-9.958,3.973-10.834,9.167L20.542,17.333
				L20.542,17.333z M41.166,19.144c-6.616-0.233-10.999-2.938-10.999-5.477c0-0.506-0.41-0.917-0.917-0.917
				s-0.917,0.411-0.917,0.917c0,2.291-2.369,4.189-5.447,4.526C23.375,13.594,27.276,10,32,10C37.046,10,41.153,14.1,41.166,19.144z
				 M22.833,23.75v-3.718c2.863-0.248,5.292-1.629,6.505-3.562c1.918,2.541,6.399,4.329,11.829,4.512v2.768
				c0,2.065-0.695,3.965-1.851,5.5H32v1.833h5.476c-0.526,0.394-1.094,0.733-1.699,1.008c-2.405,1.093-5.151,1.093-7.557,0
				C25.049,30.649,22.833,27.457,22.833,23.75z M29.167,34.367C30.073,34.609,31.02,34.75,32,34.75c0.981,0,1.928-0.141,2.833-0.383
				L32,40.034L29.167,34.367z M30.517,41.167H28.9l-3.667-7.333h1.617L30.517,41.167z M37.15,33.833h1.617L35.1,41.167h-1.617
				L37.15,33.833z M14.583,45.75v11.917h-2.75V45.75c0-6.385,5.051-11.597,11.364-11.888l3.653,7.305h-7.684
				C16.639,41.167,14.583,43.223,14.583,45.75z M47.583,57.667H16.417V45.75c0-1.516,1.234-2.75,2.75-2.75h9.167H32h3.667h9.167
				c1.516,0,2.75,1.234,2.75,2.75L47.583,57.667L47.583,57.667z M52.167,57.667h-2.75V45.75c0-2.527-2.056-4.583-4.583-4.583H37.15
				l3.653-7.305c6.313,0.292,11.364,5.504,11.364,11.888V57.667z"/>
		</g>
	</g>
	<g>
		<g>
			<rect x="43.917" y="49.417" width="1.833" height="6.417"/>
		</g>
	</g>
	<g>
		<g>
			<rect x="43.917" y="45.75" width="1.833" height="1.833"/>
		</g>
	</g>
	<g>
		<g>
			<rect x="52.167" y="12.75" width="1.833" height="1.833"/>
		</g>
	</g>
	<g>
		<g>
			<rect x="52.167" y="16.417" width="1.833" height="1.833"/>
		</g>
	</g>
	<g>
		<g>
			<rect x="52.167" y="20.083" width="1.833" height="1.833"/>
		</g>
	</g>
	<g>
		<g>
			<rect x="10" y="23.75" width="1.833" height="1.833"/>
		</g>
	</g>
	<g>
		<g>
			<rect x="10" y="27.417" width="1.833" height="1.833"/>
		</g>
	</g>
	<g>
		<g>
			<rect x="10" y="31.083" width="1.833" height="1.833"/>
		</g>
	</g>
</g>
</svg>
