<svg xmlns="http://www.w3.org/2000/svg" xmlns:xlink="http://www.w3.org/1999/xlink"><symbol viewBox="2 2 10 10" id="arrow-breadcrumb"><path d="M9.156 7l-2.5 3.125-.669-.536L8.058 7 5.987 4.411l.669-.536z"/><path fill="none" d="M2 2h10v10H2z"/></symbol><symbol viewBox="0 0 32 32" id="arrow-down"><path fill="none" d="M0 0h32v32H0z"/><path d="M17 18V4h-2v14H9l7 10 7-10h-6zm-1.04 6.512L12.841 20H19.079l-3.119 4.512z"/></symbol><symbol viewBox="0 0 14 14" id="arrow-dropdown"><path d="M7 10.773L1.531 6.398l.938-1.171L7 8.851l4.531-3.624.938 1.171z"/><path fill="none" d="M0 0h14v14H0z"/></symbol><symbol viewBox="0 0 32 32" id="arrow-left"><path fill="none" d="M0 0h32v32H0z"/><path d="M14 17h14v-2H14V9L4 16l10 7v-6zm-6.512-1.04L12 12.841V19.079L7.488 15.96z"/></symbol><symbol viewBox="0 0 24 24" id="cart"><path fill="none" d="M0 0h24v24H0z"/><path d="M19 10h-3V7c0-2.206-1.794-4-4-4S8 4.794 8 7v3H5c-.55 0-.908.441-.797.979l1.879 9.042c.112.538.654.979 1.204.979h9.429c.55 0 1.092-.441 1.203-.979l1.879-9.042C19.908 10.441 19.55 10 19 10zm-9-3c0-1.103.897-2 2-2s2 .897 2 2v3h-4V7zm6.087 12H7.913l-1.455-7h11.313l-1.684 7z"/></symbol><symbol viewBox="0 0 12 12" id="check-checkbox"><path d="M4.177 10.543L.434 6.8l1.132-1.132 2.611 2.611 6.258-6.256 1.13 1.132z"/></symbol><symbol viewBox="0 0 24 24" id="close"><path fill="none" d="M0 0h24v24H0z"/><path d="M19.778 5.636l-1.414-1.414L12 10.586 5.636 4.222 4.222 5.636 10.586 12l-6.364 6.364 1.414 1.414L12 13.414l6.364 6.364 1.414-1.414L13.414 12z"/></symbol><symbol viewBox="0 0 18 18" id="close-mini"><path fill="none" d="M0 0h18v18H0z"/><path d="M11.576 5.576L9 8.152 6.424 5.576l-.848.848L8.152 9l-2.576 2.576.848.848L9 9.848l2.576 2.576.848-.848L9.848 9l2.576-2.576z"/><path d="M9 1a8 8 0 1 0 0 16A8 8 0 0 0 9 1zm0 15c-3.86 0-7-3.14-7-7s3.14-7 7-7 7 3.14 7 7-3.14 7-7 7z"/></symbol><symbol viewBox="0 0 16 16" id="comment"><path fill="none" d="M0 0h16v16H0z"/><path d="M13 3v8.826l-1.849-1.585L10.87 10H3V3h10m1-1H2v9h8.5l3.5 3V2z"/></symbol><symbol viewBox="0 0 40 40" id="error"><path d="M20 0C8.972 0 0 8.972 0 20s8.972 20 20 20 20-8.972 20-20S31.028 0 20 0zm0 38c-9.925 0-18-8.075-18-18S10.075 2 20 2s18 8.075 18 18-8.075 18-18 18z"/><path d="M25.293 13.293L20 18.586l-5.293-5.293-1.414 1.414L18.586 20l-5.293 5.293 1.414 1.414L20 21.414l5.293 5.293 1.414-1.414L21.414 20l5.293-5.293z"/></symbol><symbol viewBox="0 0 24 24" id="eye"><circle cx="12" cy="12" r="2"/><path d="M16.466 6.748C15.238 5.583 13.619 5 12 5s-3.238.583-4.466 1.748L2 12l5.534 5.252C8.762 18.417 10.381 19 12 19s3.238-.583 4.466-1.748L22 12l-5.534-5.252zm-1.377 9.053C14.274 16.574 13.177 17 12 17s-2.274-.426-3.089-1.199L4.905 12 8.91 8.199C9.726 7.426 10.823 7 12 7s2.274.426 3.089 1.199L19.095 12l-4.006 3.801z"/><path fill="none" d="M0 0h24v24H0z"/></symbol><symbol viewBox="0 0 24 24" id="filter"><path fill="none" d="M0 0h24v24H0z"/><path d="M9.859 7A3.991 3.991 0 0 0 6 4a4 4 0 0 0 0 8c1.862 0 3.412-1.278 3.859-3H22V7H9.859zM6 10a1.994 1.994 0 0 1-1.723-1C4.106 8.705 4 8.366 4 8s.106-.705.277-1c.347-.595.985-1 1.723-1s1.376.405 1.723 1c.171.295.277.634.277 1s-.106.705-.277 1c-.347.595-.985 1-1.723 1zM13 12a3.991 3.991 0 0 0-3.859 3H2v2h7.141c.446 1.722 1.997 3 3.859 3s3.412-1.278 3.859-3H22v-2h-5.141A3.991 3.991 0 0 0 13 12zm0 6a1.994 1.994 0 0 1-1.723-1c-.171-.295-.277-.634-.277-1s.106-.705.277-1c.346-.595.984-1 1.723-1s1.376.405 1.723 1c.171.295.277.634.277 1s-.106.705-.277 1c-.347.595-.985 1-1.723 1z"/></symbol><symbol viewBox="0 0 20 20" id="gallery"><path d="M15 13H1V3h14v10zM3 11h10V5H3v6z"/><path d="M19 17H6v-2h11V8h2z"/><path fill="none" d="M0 0h20v20H0z"/></symbol><symbol viewBox="0 0 24 24" id="heart"><path d="M16.243 3.843c-1.28 0-2.559.488-3.536 1.464L12 6.015l-.707-.707c-.976-.976-2.256-1.464-3.536-1.464s-2.559.487-3.535 1.464a5 5 0 0 0 0 7.071L6.343 14.5l2.121 2.121L12 20.157l3.536-3.536 2.121-2.121 2.121-2.121a5 5 0 0 0-3.535-8.536z"/><path fill="none" d="M0 0h24v24H0z"/></symbol><symbol viewBox="0 0 24 24" id="heart-o"><path d="M16.243 5.843c.801 0 1.555.312 2.121.879a3.003 3.003 0 0 1 0 4.243l-2.121 2.121-2.121 2.121L12 17.328l-2.121-2.121-2.121-2.121-2.121-2.121a2.98 2.98 0 0 1-.879-2.121c0-.801.312-1.555.879-2.121a2.98 2.98 0 0 1 2.121-.879c.801 0 1.555.312 2.121.879l.707.707L12 8.843l1.414-1.414.707-.707a2.98 2.98 0 0 1 2.122-.879m0-2c-1.28 0-2.559.488-3.536 1.464L12 6.015l-.707-.707c-.976-.976-2.256-1.464-3.536-1.464s-2.559.487-3.535 1.464a5 5 0 0 0 0 7.071L6.343 14.5l2.121 2.121L12 20.157l3.536-3.536 2.121-2.121 2.121-2.121a5 5 0 0 0-3.535-8.536z"/><path fill="none" d="M0 0h24v24H0z"/></symbol><symbol viewBox="0 0 40 40" id="information"><path d="M20 40C8.972 40 0 31.028 0 20S8.972 0 20 0s20 8.972 20 20-8.972 20-20 20zm0-38C10.075 2 2 10.075 2 20s8.075 18 18 18 18-8.075 18-18S29.925 2 20 2z"/><path d="M19 16h2v12h-2zM19 12h2v2h-2z"/></symbol><symbol viewBox="0 0 16 16" id="left"><path fill="none" d="M0 0h16v16H0z"/><path d="M8.394 13.941L4.073 8l4.321-5.941 1.212.882L5.927 8l3.679 5.059z"/></symbol><symbol viewBox="0 0 24 24" id="menu"><path fill="none" d="M0 0h24v24H0z"/><path d="M2 6h20v2H2zM2 16h20v2H2zM2 11h20v2H2z"/></symbol><symbol viewBox="0 0 16 16" id="minus"><path fill="none" d="M0 0h16v16H0z"/><path d="M3 7h10v2H3z"/></symbol><symbol viewBox="0 0 16 16" id="plus"><path fill="none" d="M0 0h16v16H0z"/><path d="M13 7H9V3H7v4H3v2h4v4h2V9h4z"/></symbol><symbol viewBox="3.5 4.5 16 16" id="plus-mini"><path fill="none" d="M3.5 4.5h16v16h-16z"/><path d="M15.5 11.5h-3v-3h-2v3h-3v2h3v3h2v-3h3z"/></symbol><symbol viewBox="0 0 24 24" id="plus-zoom"><path fill="none" d="M0 0h24v24H0z"/><path d="M20 11h-7V4h-2v7H4v2h7v7h2v-7h7z"/></symbol><symbol viewBox="0 0 16 16" id="right"><path fill="none" d="M0 0h16v16H0z"/><path d="M7.606 13.941L11.927 8 7.606 2.059l-1.212.882L10.073 8l-3.679 5.059z"/></symbol><symbol viewBox="0 0 24 24" id="search"><path fill="none" d="M0 0h24v24H0z"/><path d="M20 18.586l-3.402-3.402A6.953 6.953 0 0 0 18 11c0-3.86-3.141-7-7-7-3.86 0-7 3.14-7 7 0 3.859 3.14 7 7 7 1.57 0 3.015-.526 4.184-1.402L18.586 20 20 18.586zM6 11c0-2.757 2.243-5 5-5s5 2.243 5 5-2.243 5-5 5-5-2.243-5-5z"/></symbol><symbol viewBox="0 0 16 16" id="share"><path d="M7 2.957V10h1V2.957l1.646 1.647.708-.708L7.5 1.043 4.646 3.896l.708.708z"/><path d="M10 6v1h1v6H4V7h1V6H3v8h9V6z"/><path fill="none" d="M0 0h16v16H0z"/></symbol><symbol viewBox="0 0 24 24" id="shop-bag"><path fill="none" d="M0 0h24v24H0z"/><path d="M20.958 19.465l-.906-14.969a1.613 1.613 0 0 0-1.59-1.492H5.507c-.835 0-1.541.668-1.592 1.492l-.913 14.969c-.05.821.58 1.492 1.408 1.492H19.55a1.39 1.39 0 0 0 1.41-1.492zm-15.926-.503L5.884 5h12.2l.845 13.963H5.032z"/><path d="M13.97 6.993v2.52c0 .146-.06.447-.232.734-.286.476-.801.763-1.763.763-.961 0-1.477-.286-1.762-.763a1.594 1.594 0 0 1-.232-.735V6.993H7.986v2.52c0 .475.127 1.11.516 1.76.649 1.083 1.817 1.732 3.473 1.732 1.657 0 2.825-.65 3.474-1.732a3.473 3.473 0 0 0 .516-1.76v-2.52H13.97z"/></symbol><symbol viewBox="0 0 24 24" id="shop-bag-2"><path fill="none" d="M0 0h24v24H0z"/><path d="M18.395 3H4.87a.847.847 0 0 0-.847.847v16.27c0 .467.378.847.846.847h13.527c.469 0 .848-.38.848-.846V3.847A.848.848 0 0 0 18.395 3zm-.847 16.27H5.715V4.694H17.55V19.27z"/><path d="M11.631 14.657a4.31 4.31 0 0 0 4.304-4.304V6.895a.847.847 0 1 0-1.693 0v3.458a2.615 2.615 0 0 1-2.611 2.61 2.614 2.614 0 0 1-2.611-2.61V6.895a.847.847 0 0 0-1.694 0v3.458a4.311 4.311 0 0 0 4.305 4.304z"/></symbol><symbol viewBox="0 0 24 24" id="shop-bag-3"><path fill="none" d="M0 0h24v24H0z"/><path d="M18.388 19.768l-.81-12.346a1.071 1.071 0 0 0-1.069-1.001h-1.384A3.432 3.432 0 0 0 11.696 3a3.432 3.432 0 0 0-3.428 3.421H6.884c-.565 0-1.032.438-1.07 1.001l-.812 12.392a1.072 1.072 0 0 0 1.07 1.141h11.25a1.071 1.071 0 0 0 1.066-1.187zM11.696 5.143c.707 0 1.282.573 1.286 1.278h-2.571a1.287 1.287 0 0 1 1.285-1.278zm-4.48 13.67l.671-10.25h7.619l.672 10.25H7.215z"/></symbol><symbol viewBox="0 0 24 24" id="shop-bag-4"><path fill="none" d="M0 0h24v24H0z"/><path d="M18.633 20.101L18.09 8.143a.818.818 0 0 0-.817-.78h-2.455V6c0-1.654-1.346-3-3-3s-3 1.346-3 3v1.362H6.364a.818.818 0 0 0-.818.781l-.545 12.002a.818.818 0 0 0 .817.855H17.82a.818.818 0 0 0 .814-.899zm-8.179-14.1c0-.753.612-1.365 1.364-1.365.752 0 1.364.612 1.364 1.364v1.362h-2.728V6zm-3.78 13.363l.471-10.365h1.673v.818a.818.818 0 0 0 1.636 0v-.818h2.728v.818a.818.818 0 0 0 1.636 0v-.818h1.673l.47 10.365H6.675z"/></symbol><symbol viewBox="0 0 24 24" id="shop-bag-5"><path fill="none" d="M0 0h24v24H0z"/><path d="M19.311 20.091L18.256 8.486a.794.794 0 0 0-.79-.723h-2.383V5.912A2.915 2.915 0 0 0 12.171 3 2.915 2.915 0 0 0 9.26 5.912v1.851H6.877a.794.794 0 0 0-.79.723l-1.06 11.648a.794.794 0 0 0 .791.866H18.525a.794.794 0 0 0 .786-.909zm-8.463-14.18c0-.729.594-1.323 1.323-1.323.73 0 1.324.594 1.324 1.324v1.851h-2.647V5.912zm-4.16 13.5l.914-10.06h9.138l.915 10.06H6.688z"/><path d="M10.615 10.643a.801.801 0 0 0-.561-.233.801.801 0 0 0-.562.233.8.8 0 0 0-.232.562.8.8 0 0 0 .232.561.801.801 0 0 0 .562.232.8.8 0 0 0 .561-.232.799.799 0 0 0 .233-.561.799.799 0 0 0-.233-.562zM14.85 10.643a.801.801 0 0 0-.561-.233.8.8 0 0 0-.562.233.8.8 0 0 0-.232.562.8.8 0 0 0 .232.561.8.8 0 0 0 .562.232.8.8 0 0 0 .562-.232.8.8 0 0 0 .232-.561.8.8 0 0 0-.232-.562z"/></symbol><symbol viewBox="0 0 24 24" id="shop-cart"><path fill="none" d="M0 0h24v24H0z"/><path d="M20.347 6.057a.818.818 0 0 0-.656-.33H7.09l-.222-2A.818.818 0 0 0 6.054 3H3.873a.818.818 0 0 0 0 1.636h1.45l.22 1.99.003.021.786 7.08a.818.818 0 0 0 .813.728H17.57c.362 0 .68-.238.784-.584l2.122-7.091a.818.818 0 0 0-.128-.723zm-3.387 6.761H7.878l-.606-5.454h11.32l-1.632 5.454zM8.782 16.09a2.457 2.457 0 0 0-2.455 2.455A2.457 2.457 0 0 0 8.782 21a2.457 2.457 0 0 0 2.454-2.455 2.457 2.457 0 0 0-2.454-2.454zm0 3.274a.82.82 0 0 1 0-1.637.82.82 0 0 1 0 1.637zM15.273 16.09a2.457 2.457 0 0 0-2.455 2.455A2.457 2.457 0 0 0 15.273 21a2.457 2.457 0 0 0 2.454-2.455 2.457 2.457 0 0 0-2.454-2.454zm0 3.274a.82.82 0 0 1 0-1.637.82.82 0 0 1 0 1.637z"/></symbol><symbol viewBox="0 0 24 24" id="socials"><path d="M17 13c-1.2 0-2.266.542-3 1.382l-3.091-1.546c.058-.27.091-.549.091-.836 0-.287-.033-.566-.091-.836L14 9.618c.734.84 1.8 1.382 3 1.382 2.206 0 4-1.794 4-4s-1.794-4-4-4-4 1.794-4 4c0 .287.033.566.091.836L10 9.382A3.975 3.975 0 0 0 7 8c-2.206 0-4 1.794-4 4s1.794 4 4 4c1.2 0 2.266-.542 3-1.382l3.091 1.546c-.058.27-.091.549-.091.836 0 2.206 1.794 4 4 4s4-1.794 4-4-1.794-4-4-4zm0-8c1.103 0 2 .897 2 2s-.897 2-2 2-2-.897-2-2 .897-2 2-2zM7 14c-1.103 0-2-.897-2-2s.897-2 2-2 2 .897 2 2-.897 2-2 2zm10 5c-1.103 0-2-.897-2-2s.897-2 2-2 2 .897 2 2-.897 2-2 2z"/><path fill="none" d="M0 0h24v24H0z"/></symbol><symbol viewBox="0 0 12 12" id="star"><path fill="none" d="M0 0h12v12H0z"/><path d="M6 1l1.18 3.82L11 5 7.91 7.18 9.09 11 6 8.639 2.91 11l1.18-3.82L1 5l3.82-.18z"/></symbol><symbol viewBox="0 0 40 40" id="success"><path d="M20 40C8.972 40 0 31.028 0 20S8.972 0 20 0s20 8.972 20 20-8.972 20-20 20zm0-38C10.075 2 2 10.075 2 20s8.075 18 18 18 18-8.075 18-18S29.925 2 20 2z"/><path d="M18 27.414l-6.707-6.707 1.414-1.414L18 24.586l11.293-11.293 1.414 1.414z"/></symbol><symbol viewBox="0 0 20 20" id="video"><path fill="none" d="M0 0h20v20H0z"/><path d="M5 4l10 6-10 6z"/></symbol><symbol viewBox="0 0 40 40" id="warning"><path d="M20 40C8.972 40 0 31.028 0 20S8.972 0 20 0s20 8.972 20 20-8.972 20-20 20zm0-38C10.075 2 2 10.075 2 20s8.075 18 18 18 18-8.075 18-18S29.925 2 20 2z"/><path d="M19 15h2v6h-2zM19 23h2v2h-2z"/><path d="M26 29H14c-1.673 0-3.016-.648-3.684-1.778s-.589-2.618.218-4.085l6.18-11.238c.825-1.5 1.992-2.325 3.286-2.325s2.461.825 3.285 2.325l6.182 11.238c.807 1.467.886 2.955.218 4.085S27.674 29 26 29zm-6-17.426c-.524 0-1.083.47-1.534 1.289l-6.18 11.238c-.457.831-.548 1.598-.249 2.104.299.505 1.015.795 1.963.795h12c.948 0 1.664-.29 1.963-.796s.209-1.272-.248-2.103l-6.182-11.239c-.451-.818-1.01-1.288-1.533-1.288z"/></symbol></svg>