<?xml version="1.0" encoding="utf-8"?>
<!-- Generator: Adobe Illustrator 17.0.0, SVG Export Plug-In . SVG Version: 6.00 Build 0)  -->
<!DOCTYPE svg PUBLIC "-//W3C//DTD SVG 1.1//EN" "http://www.w3.org/Graphics/SVG/1.1/DTD/svg11.dtd">
<svg version="1.1" id="Layer_1" xmlns="http://www.w3.org/2000/svg" xmlns:xlink="http://www.w3.org/1999/xlink" x="0px" y="0px"
	 width="24px" height="24px" viewBox="0 0 24 24" enable-background="new 0 0 24 24" xml:space="preserve">
<g>
	<rect fill="none" width="24" height="24"/>
	<path d="M19,10h-3V7c0-2.206-1.794-4-4-4S8,4.794,8,7v3H5c-0.55,0-0.908,0.441-0.797,0.979l1.879,9.042
		C6.194,20.559,6.736,21,7.286,21h9.429c0.55,0,1.092-0.441,1.203-0.979l1.879-9.042C19.908,10.441,19.55,10,19,10z M10,7
		c0-1.103,0.897-2,2-2s2,0.897,2,2v3h-4V7z M16.087,19H7.913l-1.455-7h11.313L16.087,19z"/>
</g>
</svg>
