<?xml version="1.0" encoding="utf-8"?>
<!-- Generator: Adobe Illustrator 17.0.0, SVG Export Plug-In . SVG Version: 6.00 Build 0)  -->
<!DOCTYPE svg PUBLIC "-//W3C//DTD SVG 1.1//EN" "http://www.w3.org/Graphics/SVG/1.1/DTD/svg11.dtd">
<svg version="1.1" id="Layer_1" xmlns="http://www.w3.org/2000/svg" xmlns:xlink="http://www.w3.org/1999/xlink" x="0px" y="0px"
	 width="24px" height="24px" viewBox="0 0 24 24" enable-background="new 0 0 24 24" xml:space="preserve">
<g>
	<rect fill="none" width="24" height="24"/>
	<path d="M20,18.586l-3.402-3.402C17.474,14.015,18,12.57,18,11c0-3.86-3.141-7-7-7c-3.86,0-7,3.14-7,7c0,3.859,3.14,7,7,7
		c1.57,0,3.015-0.526,4.184-1.402L18.586,20L20,18.586z M6,11c0-2.757,2.243-5,5-5s5,2.243,5,5s-2.243,5-5,5S6,13.757,6,11z"/>
</g>
</svg>
