<?xml version="1.0" encoding="utf-8"?>
<!DOCTYPE svg PUBLIC "-//W3C//DTD SVG 1.1//EN" "http://www.w3.org/Graphics/SVG/1.1/DTD/svg11.dtd">
<svg version="1.1" id="Layer_1" xmlns="http://www.w3.org/2000/svg" xmlns:xlink="http://www.w3.org/1999/xlink" x="0px" y="0px"
	 width="24px" height="24px" viewBox="0 0 24 24" enable-background="new 0 0 24 24" xml:space="preserve">
<g>
	<rect fill="none" width="24" height="24"/>
    <path d="M18.6334992,20.1014182 L18.0900083,8.14325455 C18.0701538,7.70623636 17.7100992,7.36221818 17.2726992,7.36221818 L14.8181538,7.36221818 L14.8181538,6.00005455 C14.8181538,4.3458 13.4723538,3 11.8181538,3 C10.1639538,3 8.81815376,4.3458 8.81815376,6.00005455 L8.81815376,7.36221818 L6.36360831,7.36221818 C5.92615376,7.36221818 5.56609922,7.70629091 5.54629922,8.14325455 L5.00084467,20.1446727 C4.99069922,20.3678727 5.07229922,20.5855091 5.22666285,20.7470727 C5.38102649,20.9085818 5.59473558,21 5.81820831,21 L17.8182083,21 C17.8186992,21 17.8189719,21 17.8192992,21 C18.2711538,21 18.637481,20.6336727 18.637481,20.1818182 C18.6373719,20.1547091 18.6360629,20.1278727 18.6334992,20.1014182 Z M10.4544629,6.00005455 C10.4544629,5.24814545 11.0661901,4.63636364 11.8180992,4.63636364 C12.5700083,4.63636364 13.1817356,5.24814545 13.1817356,6.00005455 L13.1817356,7.36221818 L10.4544629,7.36221818 L10.4544629,6.00005455 Z M6.67429922,19.3636364 L7.14540831,8.99858182 L8.81809922,8.99858182 L8.81809922,9.81676364 C8.81809922,10.2686182 9.18442649,10.6349455 9.63628103,10.6349455 C10.0881356,10.6349455 10.4544629,10.2686182 10.4544629,9.81676364 L10.4544629,8.99858182 L13.1817356,8.99858182 L13.1817356,9.81676364 C13.1817356,10.2686182 13.5480629,10.6349455 13.9999174,10.6349455 C14.4517719,10.6349455 14.8180992,10.2686182 14.8180992,9.81676364 L14.8180992,8.99858182 L16.4907901,8.99858182 L16.9618992,19.3636364 L6.67429922,19.3636364 Z" id="Shape" fill="#000000" fill-rule="nonzero"></path>
</g>
</svg>
