<?xml version="1.0" encoding="utf-8"?>
<!DOCTYPE svg PUBLIC "-//W3C//DTD SVG 1.1//EN" "http://www.w3.org/Graphics/SVG/1.1/DTD/svg11.dtd">
<svg version="1.1" id="Layer_1" xmlns="http://www.w3.org/2000/svg" xmlns:xlink="http://www.w3.org/1999/xlink" x="0px" y="0px"
	 width="24px" height="24px" viewBox="0 0 24 24" enable-background="new 0 0 24 24" xml:space="preserve">
<g>
	<rect fill="none" width="24" height="24"/>
	<path d="M19.3113359,20.0913867 L18.2563672,8.48557031 C18.219207,8.0765625 17.8761875,7.76335547 17.4654922,7.76335547 L15.0831289,7.76335547 L15.0831289,5.91178125 C15.0831289,4.30623047 13.7768984,3 12.1713477,3 C10.5657969,3 9.25956641,4.30623047 9.25956641,5.91178125 L9.25956641,7.76339062 L6.87720313,7.76339062 C6.46647266,7.76339062 6.12352344,8.07659766 6.08632813,8.48560547 L5.02752734,20.1339961 C5.00734766,20.3561836 5.08159766,20.5766484 5.23199609,20.7413906 C5.3825,20.9061328 5.59533594,21 5.81840234,21 L18.524293,21 C18.5247148,21 18.5251367,21 18.5253477,21 C18.963957,21 19.319457,20.6444297 19.319457,20.2058906 C19.3194922,20.1670078 19.3166797,20.1287578 19.3113359,20.0913867 Z M10.8478203,5.91178125 C10.8478203,5.18197266 11.4415391,4.58825391 12.1713477,4.58825391 C12.9011563,4.58825391 13.494875,5.18197266 13.494875,5.91178125 L13.494875,7.76339062 L10.8478203,7.76339062 L10.8478203,5.91178125 Z M6.68802734,19.4117812 L7.60247656,9.35164453 L16.7403242,9.35164453 L17.6547383,19.4117812 L6.68802734,19.4117812 Z" id="Shape" fill="#000000" fill-rule="nonzero"></path>
	<path d="M10.6154023,10.6431094 C10.4672187,10.495418 10.2628203,10.4101641 10.0537109,10.4101641 C9.84460156,10.4101641 9.64023828,10.4953828 9.49201953,10.6431094 C9.34432812,10.7908008 9.25960156,10.9951641 9.25960156,11.2048008 C9.25960156,11.4133828 9.34429297,11.6182734 9.49201953,11.7659648 C9.64023828,11.9136562 9.84460156,11.9983828 10.0537109,11.9983828 C10.2628203,11.9983828 10.4671836,11.9136914 10.6154023,11.7659648 C10.7630937,11.6182734 10.8478203,11.4139102 10.8478203,11.2048008 C10.8478203,10.9951641 10.7631289,10.7908359 10.6154023,10.6431094 Z" id="Shape" fill="#000000" fill-rule="nonzero"></path>
	<path d="M14.8506758,10.6431094 C14.7024922,10.495418 14.4981992,10.4101641 14.2890195,10.4101641 C14.0799102,10.4101641 13.8750195,10.4953828 13.7273281,10.6431094 C13.5796367,10.7908008 13.4949102,10.9956914 13.4949102,11.2048008 C13.4949102,11.4133828 13.5796016,11.6182734 13.7273281,11.7659648 C13.8750195,11.9136562 14.0799102,11.9983828 14.2890195,11.9983828 C14.4981289,11.9983828 14.7024922,11.9136914 14.8506758,11.7659648 C14.9983672,11.6182734 15.0831289,11.4133828 15.0831289,11.2048008 C15.0831289,10.9956914 14.9983672,10.7908359 14.8506758,10.6431094 Z" id="Shape" fill="#000000" fill-rule="nonzero"></path>
</g>
</svg>
