<?xml version="1.0" encoding="utf-8"?>
<!DOCTYPE svg PUBLIC "-//W3C//DTD SVG 1.1//EN" "http://www.w3.org/Graphics/SVG/1.1/DTD/svg11.dtd">
<svg version="1.1" id="Layer_1" xmlns="http://www.w3.org/2000/svg" xmlns:xlink="http://www.w3.org/1999/xlink" x="0px" y="0px"
	 width="24px" height="24px" viewBox="0 0 24 24" enable-background="new 0 0 24 24" xml:space="preserve">
<g>
	<rect fill="none" width="24" height="24"/>
    <path d="M18.3875936,19.767675 L17.5782686,7.42233 C17.5413236,6.85902 17.0736836,6.42099 16.5091136,6.42099 L15.1248686,6.42099 C15.1208636,4.53396 13.5845186,3 11.6964536,3 C9.80838865,3 8.27204365,4.53396 8.26799365,6.42099 L6.88374865,6.42099 C6.31926865,6.42099 5.85158365,6.85902 5.81463865,7.42233 L5.00229865,19.81353 C4.98290365,20.109225 5.08689865,20.399745 5.28944365,20.61606 C5.49203365,20.83233 5.77512865,20.955045 6.07145365,20.955045 L17.3214536,20.955045 C17.3214536,20.955045 17.3220836,20.955045 17.3223536,20.955045 C17.9141036,20.955045 18.3938036,20.475345 18.3938036,19.88364 C18.3937586,19.844445 18.3917336,19.80579 18.3875936,19.767675 Z M11.6964536,5.142855 C12.4029086,5.142855 12.9780086,5.71557 12.9820136,6.42099 L10.4108486,6.42099 C10.4149436,5.71557 10.9899986,5.142855 11.6964536,5.142855 Z M7.21544365,18.812235 L7.88729365,8.56389 L15.5056586,8.56389 L16.1775086,18.812235 L7.21544365,18.812235 Z" id="Shape" fill="#000000" fill-rule="nonzero"></path>
</g>
</svg>
