<?xml version="1.0" encoding="utf-8"?>
<!-- Generator: Adobe Illustrator 17.0.0, SVG Export Plug-In . SVG Version: 6.00 Build 0)  -->
<!DOCTYPE svg PUBLIC "-//W3C//DTD SVG 1.1//EN" "http://www.w3.org/Graphics/SVG/1.1/DTD/svg11.dtd">
<svg version="1.1" id="Layer_1" xmlns="http://www.w3.org/2000/svg" xmlns:xlink="http://www.w3.org/1999/xlink" x="0px" y="0px"
	 width="24px" height="24px" viewBox="0 0 24 24" enable-background="new 0 0 24 24" xml:space="preserve">
<g>
	<path d="M17,13c-1.2,0-2.266,0.542-3,1.382l-3.091-1.546C10.967,12.566,11,12.287,11,12c0-0.287-0.033-0.566-0.091-0.836L14,9.618
		C14.734,10.458,15.8,11,17,11c2.206,0,4-1.794,4-4s-1.794-4-4-4s-4,1.794-4,4c0,0.287,0.033,0.566,0.091,0.836L10,9.382
		C9.266,8.542,8.2,8,7,8c-2.206,0-4,1.794-4,4c0,2.206,1.794,4,4,4c1.2,0,2.266-0.542,3-1.382l3.091,1.546
		C13.033,16.434,13,16.713,13,17c0,2.206,1.794,4,4,4s4-1.794,4-4S19.206,13,17,13z M17,5c1.103,0,2,0.897,2,2s-0.897,2-2,2
		s-2-0.897-2-2S15.897,5,17,5z M7,14c-1.103,0-2-0.897-2-2c0-1.103,0.897-2,2-2s2,0.897,2,2C9,13.103,8.103,14,7,14z M17,19
		c-1.103,0-2-0.897-2-2s0.897-2,2-2s2,0.897,2,2S18.103,19,17,19z"/>
	<rect fill="none" width="24" height="24"/>
</g>
</svg>
